<svg width="150" height="150" viewBox="0 0 150 150" fill="none" xmlns="http://www.w3.org/2000/svg">
<circle opacity="0.1" cx="75" cy="75" r="75" fill="#3570EF"/>
<path d="M99.8631 59.5625L86.125 45.8244V59.5625H99.8631ZM102.062 64.875H80.8125V43.625H48.9375V107.375H102.062V64.875ZM46.2812 38.3125H86.125L107.375 59.5625V110.031C107.375 110.736 107.095 111.411 106.597 111.91C106.099 112.408 105.423 112.688 104.719 112.688H46.2812C45.5768 112.688 44.9011 112.408 44.403 111.91C43.9049 111.411 43.625 110.736 43.625 110.031V40.9688C43.625 40.2643 43.9049 39.5886 44.403 39.0905C44.9011 38.5924 45.5768 38.3125 46.2812 38.3125ZM71.93 83.66L64.4181 76.1375L68.1741 72.3816L75.6912 79.8934L83.2031 72.3869L86.9591 76.1428L79.4472 83.66L86.9591 91.1719L83.2031 94.9278L75.6912 87.4159L68.1741 94.9278L64.4181 91.1719L71.93 83.66Z" fill="#3570EF"/>
</svg>
