<svg width="36" height="35" viewBox="0 0 36 35" fill="none" xmlns="http://www.w3.org/2000/svg">
<ellipse opacity="0.1" cx="18" cy="17.5" rx="18" ry="17.5" fill="#3570EF"/>
<path d="M15.539 21.23C13.9403 21.23 12.5853 20.6747 11.474 19.564C10.3633 18.454 9.80798 17.0994 9.80798 15.5C9.80798 13.9007 10.3633 12.5457 11.474 11.435C12.5847 10.3244 13.9396 9.76935 15.539 9.77002C17.1383 9.77069 18.493 10.326 19.603 11.436C20.713 12.546 21.2683 13.9007 21.269 15.5C21.269 16.1947 21.146 16.867 20.9 17.517C20.654 18.167 20.3306 18.723 19.93 19.185L25.839 25.092C25.9323 25.1854 25.9823 25.3004 25.989 25.437C25.995 25.5724 25.945 25.6934 25.839 25.8C25.7323 25.9067 25.6143 25.96 25.485 25.96C25.3556 25.96 25.2376 25.9067 25.131 25.8L19.223 19.892C18.723 20.318 18.148 20.6477 17.498 20.881C16.848 21.1144 16.1947 21.231 15.538 21.231M15.538 20.231C16.8647 20.231 17.985 19.7744 18.899 18.861C19.8123 17.9477 20.269 16.8274 20.269 15.5C20.269 14.1727 19.8126 13.0527 18.9 12.14C17.9873 11.2274 16.8673 10.7707 15.54 10.77C14.2126 10.77 13.0923 11.2267 12.179 12.14C11.2656 13.0534 10.8087 14.1734 10.808 15.5C10.8073 16.8267 11.264 17.9467 12.178 18.86C13.092 19.7734 14.212 20.23 15.538 20.23" fill="#3570EF"/>
</svg>
