<svg width="60" height="60" viewBox="0 0 60 60" fill="none" xmlns="http://www.w3.org/2000/svg">
<circle cx="30" cy="30" r="30" fill="#EBF1FE"/>
<path d="M32.536 16.3213V19.1843C35.936 19.2033 39.893 19.1493 43.29 19.2003C43.932 19.2003 43.96 19.7683 43.968 20.2643C44.022 26.2063 43.955 32.3193 44 38.2643C43.988 38.4983 43.994 39.3643 43.987 39.6103C43.965 40.4333 43.553 40.4693 42.73 40.4943C42.598 40.4943 42.21 40.5003 42.082 40.5063C38.901 40.4903 35.72 40.4973 32.536 40.4973V43.6793L16 41.1343V18.8733L32.536 16.3213Z" fill="#D33922"/>
<path d="M32.5362 20.1377H43.0362V39.5377H32.5362V36.9997H40.1702V35.7247H32.5362V34.1347H40.1702V32.8627H32.5392C32.5405 32.2387 32.5385 31.6154 32.5332 30.9927C33.1578 31.2178 33.8247 31.301 34.4855 31.2361C35.1463 31.1712 35.7843 30.96 36.3532 30.6177C36.9331 30.2368 37.4135 29.7228 37.7543 29.1184C38.0951 28.5141 38.2864 27.837 38.3122 27.1437C36.9122 27.1337 35.5192 27.1377 34.1262 27.1377C34.1262 25.7537 34.1422 24.3707 34.0972 22.9897C33.5752 23.0897 33.0542 23.1997 32.5352 23.3107V20.1387" fill="white"/>
<path d="M34.7662 22.3242C35.8509 22.3922 36.8738 22.8525 37.6441 23.6193C38.4143 24.386 38.8793 25.4068 38.9522 26.4912C37.5522 26.5072 36.1592 26.5012 34.7632 26.5012V22.3242" fill="#D33922"/>
<path d="M21.1001 24.726C22.8271 24.809 24.9201 24.042 26.3521 25.337C27.7231 27.001 27.3601 30.061 25.3281 31.056C24.5892 31.3486 23.7883 31.449 23.0001 31.348C23.0001 32.592 22.9941 33.836 23.0001 35.079C22.3687 35.0243 21.7377 34.9713 21.1071 34.92C21.0781 31.52 21.0721 28.12 21.1071 24.72" fill="white"/>
<path d="M22.993 26.4462C23.62 26.4172 24.393 26.3032 24.819 26.8912C24.9899 27.2112 25.0827 27.567 25.0899 27.9297C25.097 28.2925 25.0182 28.6517 24.86 28.9782C24.497 29.6332 23.677 29.5702 23.044 29.6462C22.977 28.5802 22.984 27.5152 22.993 26.4462Z" fill="#D33922"/>
</svg>
