<svg width="20" height="20" viewBox="0 0 20 20" fill="none" xmlns="http://www.w3.org/2000/svg">
<g opacity="0.8">
<path d="M7.49984 3.71639C8.30821 3.45956 9.15165 3.33023 9.99984 3.33305C13.4848 3.33305 15.8565 5.41639 17.2707 7.25305C17.979 8.17472 18.3332 8.63389 18.3332 9.99972C18.3332 11.3664 17.979 11.8256 17.2707 12.7464C15.8565 14.5831 13.4848 16.6664 9.99984 16.6664C6.51484 16.6664 4.14317 14.5831 2.729 12.7464C2.02067 11.8264 1.6665 11.3656 1.6665 9.99972C1.6665 8.63305 2.02067 8.17389 2.729 7.25305C3.16109 6.68874 3.64212 6.16365 4.1665 5.68389" stroke="#0F2045" stroke-linecap="round"/>
<path d="M12.5 10C12.5 10.663 12.2366 11.2989 11.7678 11.7678C11.2989 12.2366 10.663 12.5 10 12.5C9.33696 12.5 8.70107 12.2366 8.23223 11.7678C7.76339 11.2989 7.5 10.663 7.5 10C7.5 9.33696 7.76339 8.70107 8.23223 8.23223C8.70107 7.76339 9.33696 7.5 10 7.5C10.663 7.5 11.2989 7.76339 11.7678 8.23223C12.2366 8.70107 12.5 9.33696 12.5 10Z" stroke="#0F2045"/>
</g>
</svg>
