<svg width="53" height="53" viewBox="0 0 53 53" fill="none" xmlns="http://www.w3.org/2000/svg">
<circle cx="26.5" cy="26.5" r="26.5" fill="#EBF1FE"/>
<path d="M22 29C21.45 29 20.9793 28.8043 20.588 28.413C20.1967 28.0217 20.0007 27.5507 20 27C19.9993 26.4493 20.1953 25.9787 20.588 25.588C20.9807 25.1973 21.4513 25.0013 22 25C22.5487 24.9987 23.0197 25.1947 23.413 25.588C23.8063 25.9813 24.002 26.452 24 27C23.998 27.548 23.8023 28.019 23.413 28.413C23.0237 28.807 22.5527 29.0027 22 29ZM22 33C20.3333 33 18.9167 32.4167 17.75 31.25C16.5833 30.0833 16 28.6667 16 27C16 25.3333 16.5833 23.9167 17.75 22.75C18.9167 21.5833 20.3333 21 22 21C23.1167 21 24.1293 21.275 25.038 21.825C25.9467 22.375 26.6673 23.1 27.2 24H36L39 27L34.5 31.5L32.5 30L30.5 31.5L28.375 30H27.2C26.6667 30.9 25.946 31.625 25.038 32.175C24.13 32.725 23.1173 33 22 33ZM22 31C22.9333 31 23.7543 30.7167 24.463 30.15C25.1717 29.5833 25.6423 28.8667 25.875 28H29L30.45 29.025L32.5 27.5L34.275 28.875L36.15 27L35.15 26H25.875C25.6417 25.1333 25.171 24.4167 24.463 23.85C23.755 23.2833 22.934 23 22 23C20.9 23 19.9583 23.3917 19.175 24.175C18.3917 24.9583 18 25.9 18 27C18 28.1 18.3917 29.0417 19.175 29.825C19.9583 30.6083 20.9 31 22 31Z" fill="#407BFF"/>
</svg>
