<svg width="18" height="18" viewBox="0 0 18 18" fill="none" xmlns="http://www.w3.org/2000/svg">
<path opacity="0.8" d="M8.76599 2.29725C9.0527 2.4276 9.31361 2.60848 9.53624 2.83125L14.0122 7.30875C14.2372 7.53375 14.4172 7.794 14.5455 8.07825M8.76599 2.29725C8.42489 2.14241 8.0546 2.06236 7.67999 2.0625H5.84399C5.1478 2.0625 4.48012 2.33906 3.98784 2.83134C3.49556 3.32363 3.21899 3.99131 3.21899 4.6875V13.3125C3.21899 14.0087 3.49556 14.6764 3.98784 15.1687C4.48012 15.6609 5.1478 15.9375 5.84399 15.9375H12.156C12.8522 15.9375 13.5199 15.6609 14.0122 15.1687C14.5044 14.6764 14.781 14.0087 14.781 13.3125V9.165C14.781 8.78625 14.6992 8.4165 14.5455 8.07825M8.76599 2.29725V6.5775C8.76599 6.97533 8.92403 7.35686 9.20533 7.63816C9.48664 7.91946 9.86817 8.0775 10.266 8.0775L14.5455 8.07825" stroke="#263238" stroke-width="1.5" stroke-linecap="round" stroke-linejoin="round"/>
</svg>
