<svg width="60" height="60" viewBox="0 0 60 60" fill="none" xmlns="http://www.w3.org/2000/svg">
<circle opacity="0.1" cx="30" cy="30" r="30" fill="#FFD400"/>
<path fill-rule="evenodd" clip-rule="evenodd" d="M33 23.9999C33.0004 24.6205 32.8082 25.226 32.45 25.7328C32.0918 26.2397 31.5852 26.623 31 26.8299V28.9999H34C34.7957 28.9999 35.5587 29.3159 36.1214 29.8785C36.684 30.4412 37 31.2042 37 31.9999V33.1699C37.6675 33.4058 38.2301 33.8701 38.5884 34.4807C38.9467 35.0913 39.0775 35.8089 38.9578 36.5067C38.8382 37.2044 38.4757 37.8374 37.9344 38.2937C37.3931 38.7501 36.708 39.0004 36 39.0004C35.2921 39.0004 34.6069 38.7501 34.0657 38.2937C33.5244 37.8374 33.1619 37.2044 33.0422 36.5067C32.9225 35.8089 33.0534 35.0913 33.4117 34.4807C33.7699 33.8701 34.3325 33.4058 35 33.1699V31.9999C35 31.7346 34.8947 31.4803 34.7071 31.2928C34.5196 31.1052 34.2652 30.9999 34 30.9999H26C25.7348 30.9999 25.4805 31.1052 25.2929 31.2928C25.1054 31.4803 25 31.7346 25 31.9999V33.1699C25.6675 33.4058 26.2301 33.8701 26.5884 34.4807C26.9467 35.0913 27.0775 35.8089 26.9578 36.5067C26.8382 37.2044 26.4757 37.8374 25.9344 38.2937C25.3931 38.7501 24.708 39.0004 24 39.0004C23.2921 39.0004 22.6069 38.7501 22.0657 38.2937C21.5244 37.8374 21.1619 37.2044 21.0422 36.5067C20.9225 35.8089 21.0534 35.0913 21.4117 34.4807C21.7699 33.8701 22.3325 33.4058 23 33.1699V31.9999C23 31.2042 23.3161 30.4412 23.8787 29.8785C24.4413 29.3159 25.2044 28.9999 26 28.9999H29V26.8299C28.4812 26.6467 28.0227 26.3244 27.6746 25.8982C27.3266 25.4721 27.1024 24.9584 27.0266 24.4134C26.9508 23.8684 27.0263 23.3131 27.2449 22.8081C27.4634 22.3031 27.8166 21.868 28.2658 21.5502C28.7149 21.2324 29.2428 21.0442 29.7918 21.0062C30.3407 20.9682 30.8895 21.0818 31.3782 21.3347C31.8669 21.5876 32.2766 21.9699 32.5627 22.44C32.8487 22.91 33 23.4496 33 23.9999ZM30 22.9999C29.7348 22.9999 29.4805 23.1052 29.2929 23.2928C29.1054 23.4803 29 23.7346 29 23.9999C29 24.2651 29.1054 24.5194 29.2929 24.707C29.4805 24.8945 29.7348 24.9999 30 24.9999C30.2652 24.9999 30.5196 24.8945 30.7071 24.707C30.8947 24.5194 31 24.2651 31 23.9999C31 23.7346 30.8947 23.4803 30.7071 23.2928C30.5196 23.1052 30.2652 22.9999 30 22.9999ZM24 34.9999C23.7348 34.9999 23.4805 35.1052 23.2929 35.2928C23.1054 35.4803 23 35.7346 23 35.9999C23 36.2651 23.1054 36.5194 23.2929 36.707C23.4805 36.8945 23.7348 36.9999 24 36.9999C24.2652 36.9999 24.5196 36.8945 24.7071 36.707C24.8947 36.5194 25 36.2651 25 35.9999C25 35.7346 24.8947 35.4803 24.7071 35.2928C24.5196 35.1052 24.2652 34.9999 24 34.9999ZM36 34.9999C35.7348 34.9999 35.4805 35.1052 35.2929 35.2928C35.1054 35.4803 35 35.7346 35 35.9999C35 36.2651 35.1054 36.5194 35.2929 36.707C35.4805 36.8945 35.7348 36.9999 36 36.9999C36.2652 36.9999 36.5196 36.8945 36.7071 36.707C36.8947 36.5194 37 36.2651 37 35.9999C37 35.7346 36.8947 35.4803 36.7071 35.2928C36.5196 35.1052 36.2652 34.9999 36 34.9999Z" fill="#FFD400"/>
</svg>
