<svg width="89" height="89" viewBox="0 0 89 89" fill="none" xmlns="http://www.w3.org/2000/svg">
<g opacity="0.8">
<path d="M83.4375 66.75H72.3125V55.625H66.75V66.75H55.625V72.3125H66.75V83.4375H72.3125V72.3125H83.4375V66.75Z" fill="#0F2045"/>
<path d="M44.5 77.8751H22.25V11.1251H44.5V27.8126C44.5044 29.2865 45.0919 30.6988 46.1341 31.741C47.1763 32.7832 48.5886 33.3707 50.0625 33.3751H66.75V44.5001H72.3125V27.8126C72.3223 27.447 72.2528 27.0837 72.1088 26.7476C71.9647 26.4116 71.7496 26.1107 71.4781 25.8657L52.0094 6.39693C51.7656 6.12399 51.4649 5.90783 51.1285 5.76367C50.7922 5.61951 50.4283 5.55086 50.0625 5.56256H22.25C20.7761 5.56696 19.3638 6.15442 18.3216 7.19664C17.2794 8.23886 16.6919 9.65115 16.6875 11.1251V77.8751C16.6919 79.349 17.2794 80.7613 18.3216 81.8035C19.3638 82.8457 20.7761 83.4332 22.25 83.4376H44.5V77.8751ZM50.0625 12.2376L65.6375 27.8126H50.0625V12.2376Z" fill="#0F2045"/>
</g>
</svg>
