<svg width="60" height="60" viewBox="0 0 60 60" fill="none" xmlns="http://www.w3.org/2000/svg">
<circle opacity="0.1" cx="30" cy="30" r="30" fill="#FF5959"/>
<path d="M25 32C24.45 32 23.9793 31.8043 23.588 31.413C23.1967 31.0217 23.0007 30.5507 23 30C22.9993 29.4493 23.1953 28.9787 23.588 28.588C23.9807 28.1973 24.4513 28.0013 25 28C25.5487 27.9987 26.0197 28.1947 26.413 28.588C26.8063 28.9813 27.002 29.452 27 30C26.998 30.548 26.8023 31.019 26.413 31.413C26.0237 31.807 25.5527 32.0027 25 32ZM25 36C23.3333 36 21.9167 35.4167 20.75 34.25C19.5833 33.0833 19 31.6667 19 30C19 28.3333 19.5833 26.9167 20.75 25.75C21.9167 24.5833 23.3333 24 25 24C26.1167 24 27.1293 24.275 28.038 24.825C28.9467 25.375 29.6673 26.1 30.2 27H39L42 30L37.5 34.5L35.5 33L33.5 34.5L31.375 33H30.2C29.6667 33.9 28.946 34.625 28.038 35.175C27.13 35.725 26.1173 36 25 36ZM25 34C25.9333 34 26.7543 33.7167 27.463 33.15C28.1717 32.5833 28.6423 31.8667 28.875 31H32L33.45 32.025L35.5 30.5L37.275 31.875L39.15 30L38.15 29H28.875C28.6417 28.1333 28.171 27.4167 27.463 26.85C26.755 26.2833 25.934 26 25 26C23.9 26 22.9583 26.3917 22.175 27.175C21.3917 27.9583 21 28.9 21 30C21 31.1 21.3917 32.0417 22.175 32.825C22.9583 33.6083 23.9 34 25 34Z" fill="#FF5959"/>
</svg>
