<svg width="39" height="39" viewBox="0 0 39 39" fill="none" xmlns="http://www.w3.org/2000/svg">
<circle cx="19.5" cy="19.5" r="19.5" fill="#EBF1FE"/>
<g clip-path="url(#clip0_99_2067)">
<path d="M16.4937 30.0625C18.4275 30.0625 19.9875 28.5025 19.9875 26.5687V23.075H16.4937C14.56 23.075 13 24.635 13 26.5687C13 28.5025 14.56 30.0625 16.4937 30.0625Z" fill="#0ACF83"/>
<path d="M13 19.5812C13 17.6475 14.56 16.0875 16.4937 16.0875H19.9875V23.075H16.4937C14.56 23.075 13 21.515 13 19.5812Z" fill="#A259FF"/>
<path d="M13 12.5937C13 10.66 14.56 9.09998 16.4937 9.09998H19.9875V16.0875H16.4937C14.56 16.0875 13 14.5275 13 12.5937Z" fill="#F24E1E"/>
<path d="M19.9878 9.09998H23.4815C25.4153 9.09998 26.9753 10.66 26.9753 12.5937C26.9753 14.5275 25.4153 16.0875 23.4815 16.0875H19.9878V9.09998Z" fill="#FF7262"/>
<path d="M26.9753 19.5812C26.9753 21.515 25.4153 23.075 23.4815 23.075C21.5478 23.075 19.9878 21.515 19.9878 19.5812C19.9878 17.6475 21.5478 16.0875 23.4815 16.0875C25.4153 16.0875 26.9753 17.6475 26.9753 19.5812Z" fill="#1ABCFE"/>
</g>
<defs>
<clipPath id="clip0_99_2067">
<rect width="20.8" height="20.8" fill="white" transform="translate(9.1001 9.09998)"/>
</clipPath>
</defs>
</svg>
