<svg width="18" height="18" viewBox="0 0 18 18" fill="none" xmlns="http://www.w3.org/2000/svg">
<g opacity="0.8">
<path d="M8.99997 16.6845C13.1962 16.6845 16.684 13.2041 16.684 9.00048C16.684 4.80423 13.1885 1.31641 8.99226 1.31641C4.78894 1.31641 1.31622 4.80423 1.31622 9.00048C1.31622 13.2041 4.79633 16.6845 8.99997 16.6845ZM6.83065 13.2041C6.00201 13.2041 5.58029 12.7824 5.58029 11.9313V5.7833C5.58029 4.93955 6.00201 4.51044 6.83065 4.51044H8.64608V7.54633C8.64608 8.06608 8.89487 8.30716 9.41462 8.30716H12.3978V11.9306C12.3978 12.7744 11.9835 13.2038 11.1474 13.2038L6.83065 13.2041ZM9.47505 7.69708C9.33169 7.69708 9.25647 7.62187 9.25647 7.47851V4.55576C9.42201 4.57826 9.59526 4.6988 9.78362 4.89487L12.0137 7.16994C12.2098 7.36601 12.33 7.53155 12.3528 7.69708H9.47505Z" fill="#39A680"/>
</g>
</svg>
