<svg width="30" height="30" viewBox="0 0 30 30" fill="none" xmlns="http://www.w3.org/2000/svg">
<circle opacity="0.1" cx="15" cy="15" r="15" fill="#0F2045"/>
<path d="M20 12.5L19.3 19.4983C19.1942 20.5592 19.1417 21.0892 18.9 21.49C18.688 21.8428 18.3763 22.125 18.0042 22.3008C17.5817 22.5 17.05 22.5 15.9833 22.5H14.0167C12.9508 22.5 12.4183 22.5 11.9958 22.3C11.6234 22.1243 11.3113 21.8421 11.0992 21.4892C10.8592 21.0892 10.8058 20.5592 10.6992 19.4983L10 12.5M16.25 17.9167V13.75M13.75 17.9167V13.75M8.75 10.4167H12.5958M12.5958 10.4167L12.9175 8.19C13.0108 7.785 13.3475 7.5 13.7342 7.5H16.2658C16.6525 7.5 16.9883 7.785 17.0825 8.19L17.4042 10.4167M12.5958 10.4167H17.4042M17.4042 10.4167H21.25" stroke="#0F2045" stroke-linecap="round" stroke-linejoin="round"/>
</svg>
