<svg width="124" height="106" viewBox="0 0 124 106" fill="none" xmlns="http://www.w3.org/2000/svg">
<path d="M124 92.5371H0V92.6078H124V92.5371Z" fill="#EBEBEB"/>
<path d="M111.575 97.085H103.361V97.1556H111.575V97.085Z" fill="#EBEBEB"/>
<path d="M100.239 97.085H82.6782V97.1556H100.239V97.085Z" fill="#EBEBEB"/>
<path d="M72.9939 94.4619H68.2347V94.5326H72.9939V94.4619Z" fill="#EBEBEB"/>
<path d="M21.514 94.9365H13.0101V95.0072H21.514V94.9365Z" fill="#EBEBEB"/>
<path d="M39.184 94.9365H23.7212V95.0072H39.184V94.9365Z" fill="#EBEBEB"/>
<path d="M55.8347 96.1299H46.7058V96.2005H55.8347V96.1299Z" fill="#EBEBEB"/>
<path d="M58.776 79.9314H10.8897C10.5145 79.9307 10.155 79.7603 9.88996 79.4577C9.62493 79.1552 9.47607 78.7451 9.47607 78.3176V1.59976C9.47934 1.17467 9.62963 0.768218 9.89431 0.468684C10.159 0.16915 10.5167 0.000728198 10.8897 0H58.776C59.1516 0 59.5118 0.170035 59.7773 0.472698C60.0429 0.775361 60.1921 1.18586 60.1921 1.61389V78.3176C60.1921 78.7456 60.0429 79.1561 59.7773 79.4588C59.5118 79.7614 59.1516 79.9314 58.776 79.9314ZM10.8897 0.0565288C10.531 0.0572775 10.1872 0.220197 9.9338 0.509528C9.6804 0.798859 9.53807 1.19096 9.53807 1.59976V78.3176C9.53807 78.7264 9.6804 79.1185 9.9338 79.4078C10.1872 79.6971 10.531 79.86 10.8897 79.8608H58.776C59.1349 79.86 59.479 79.6972 59.7328 79.408C59.9865 79.1187 60.1294 78.7266 60.1301 78.3176V1.59976C60.1294 1.1907 59.9865 0.798606 59.7328 0.509356C59.479 0.220106 59.1349 0.057276 58.776 0.0565288H10.8897Z" fill="#EBEBEB"/>
<path d="M112.421 79.9314H64.5321C64.1567 79.9307 63.7969 79.7604 63.5315 79.4579C63.2661 79.1554 63.1167 78.7454 63.116 78.3176V1.59976C63.1199 1.17441 63.2708 0.767963 63.5359 0.468507C63.8009 0.169051 64.1589 0.000720256 64.5321 0H112.421C112.793 0.00147101 113.151 0.170222 113.415 0.469676C113.679 0.76913 113.829 1.17516 113.832 1.59976V78.3176C113.832 78.7446 113.684 79.1543 113.419 79.4567C113.155 79.7593 112.796 79.9299 112.421 79.9314ZM64.5321 0.0565288C64.1732 0.057276 63.8291 0.220106 63.5754 0.509356C63.3216 0.798606 63.1787 1.1907 63.178 1.59976V78.3176C63.1787 78.7266 63.3216 79.1187 63.5754 79.408C63.8291 79.6972 64.1732 79.86 64.5321 79.8608H112.421C112.78 79.86 113.124 79.6972 113.378 79.408C113.631 79.1187 113.774 78.7266 113.775 78.3176V1.59976C113.774 1.1907 113.631 0.798606 113.378 0.509356C113.124 0.220106 112.78 0.057276 112.421 0.0565288H64.5321Z" fill="#EBEBEB"/>
<path d="M18.8083 39.0674L52.4619 39.0674L52.4619 5.83704L18.8083 5.83704L18.8083 39.0674Z" fill="#E6E6E6"/>
<path d="M18.0569 39.0674L51.7105 39.0674L51.7105 5.83704L18.0569 5.83704L18.0569 39.0674Z" fill="#F5F5F5"/>
<path d="M50.3688 37.8796V7.02344L19.401 7.02344V37.8796H50.3688Z" fill="#FAFAFA"/>
<path d="M37.949 37.8796L43.5612 7.02344H31.8209L26.2111 37.8796H37.949Z" fill="white"/>
<path d="M19.9665 37.8825V7.02637H19.4011V37.8825H19.9665Z" fill="#E6E6E6"/>
<path d="M18.6124 32.3486L51.155 32.3486V30.7545L18.6124 30.7545V32.3486Z" fill="#F5F5F5"/>
<path d="M50.8995 90.8555H56.2737V64.2955H50.8995V90.8555Z" fill="#F0F0F0"/>
<path d="M15.8051 92.5371H55.2445V90.8554H15.8051V92.5371Z" fill="#F0F0F0"/>
<path d="M50.8995 64.293H14.7709V90.8529H50.8995V64.293Z" fill="#F5F5F5"/>
<path d="M48.7891 67.5635H16.8839V76.2745H48.7891V67.5635Z" fill="#F0F0F0"/>
<path d="M48.7891 78.874H16.8839V87.5851H48.7891V78.874Z" fill="#F0F0F0"/>
<path d="M24.237 72.5149H41.4358C41.5744 72.5142 41.7071 72.4511 41.8051 72.3394C41.9031 72.2277 41.9585 72.0765 41.9591 71.9185C41.9585 71.7603 41.9032 71.6088 41.8053 71.4967C41.7074 71.3845 41.5746 71.3208 41.4358 71.3193H24.237C24.0982 71.3208 23.9655 71.3845 23.8676 71.4967C23.7696 71.6088 23.7144 71.7603 23.7137 71.9185C23.7144 72.0765 23.7697 72.2277 23.8677 72.3394C23.9657 72.4511 24.0984 72.5142 24.237 72.5149Z" fill="#F5F5F5"/>
<path d="M24.237 83.8264H41.4358C41.5744 83.8257 41.7071 83.7626 41.8051 83.6509C41.9031 83.5393 41.9585 83.388 41.9591 83.2301C41.9591 83.0716 41.9041 82.9196 41.806 82.8074C41.7079 82.6951 41.5748 82.6316 41.4358 82.6309H24.237C24.098 82.6316 23.9649 82.6951 23.8669 82.8074C23.7688 82.9196 23.7137 83.0716 23.7137 83.2301C23.7144 83.388 23.7697 83.5393 23.8677 83.6509C23.9657 83.7626 24.0984 83.8257 24.237 83.8264Z" fill="#F5F5F5"/>
<path d="M107.042 23.2048C110.102 22.2438 111.149 15.9154 103.416 13.332C105.122 19.6972 101.707 24.8723 107.042 23.2048Z" fill="#EBEBEB"/>
<path d="M107.719 25.9518C110.132 22.9813 107.85 16.26 99.1603 19.0073C104.076 23.9083 103.515 31.1327 107.719 25.9518Z" fill="#E0E0E0"/>
<path d="M105.338 26.7157C103.319 24.4376 106.211 16.5095 112.877 20.1839C109.1 24.3076 108.872 30.6869 105.338 26.7157Z" fill="#FAFAFA"/>
<path d="M103.324 31.1528H109.199L109.643 26.6221H102.883L103.324 31.1528Z" fill="#E6E6E6"/>
<path d="M102.816 27.4332H109.71C109.827 27.4332 109.938 27.3805 110.021 27.2866C110.103 27.1928 110.149 27.0656 110.149 26.9329C110.149 26.8002 110.103 26.673 110.021 26.5791C109.938 26.4853 109.827 26.4326 109.71 26.4326H102.816C102.699 26.4326 102.588 26.4853 102.505 26.5791C102.423 26.673 102.377 26.8002 102.377 26.9329C102.377 27.0656 102.423 27.1928 102.505 27.2866C102.588 27.3805 102.699 27.4332 102.816 27.4332Z" fill="#E6E6E6"/>
<path d="M53.8929 84.864V77.1902H59.5002V69.5193H65.1099V61.8455H70.7172V54.1718H76.327V46.5008H81.9343V38.8271H87.544V31.1533H93.1538H124V92.5377H53.8929H48.2831V84.864H53.8929Z" fill="#FAFAFA"/>
<path d="M84.7391 84.864V77.1902H90.3489V69.5193H95.9562V61.8455H101.566V54.1718H107.173V46.5008H112.783V38.8271H118.39V31.1533H124V38.8271V92.5377H84.7391H79.1318V84.864H84.7391Z" fill="#E0E0E0"/>
<path d="M79.1319 84.8633H47.9533V87.164H79.1319V84.8633Z" fill="#EBEBEB"/>
<path d="M84.7416 77.1895H53.563V79.4902H84.7416V77.1895Z" fill="#EBEBEB"/>
<path d="M90.3489 69.5186H59.1703V71.8193H90.3489V69.5186Z" fill="#EBEBEB"/>
<path d="M95.9587 61.8447H64.7801V64.1454H95.9587V61.8447Z" fill="#EBEBEB"/>
<path d="M101.566 54.1709H70.3873V56.4716H101.566V54.1709Z" fill="#EBEBEB"/>
<path d="M107.176 46.5H75.9971V48.8007H107.176V46.5Z" fill="#EBEBEB"/>
<path d="M112.783 38.8262H81.6044V41.1269H112.783V38.8262Z" fill="#EBEBEB"/>
<path d="M118.393 31.1533H87.2142V33.454H118.393V31.1533Z" fill="#EBEBEB"/>
<path d="M62 105.301C88.5565 105.301 110.085 103.869 110.085 102.102C110.085 100.335 88.5565 98.9023 62 98.9023C35.4435 98.9023 13.9153 100.335 13.9153 102.102C13.9153 103.869 35.4435 105.301 62 105.301Z" fill="#F5F5F5"/>
<path d="M83.0056 29.2909C82.961 30.1388 82.8742 30.9161 82.7775 31.7216C82.6808 32.5271 82.5493 33.3157 82.4005 34.1071C82.1104 35.7089 81.6912 37.2766 81.1481 38.7905L80.9224 39.3558L80.8679 39.4971L80.848 39.5706L80.8084 39.6611C80.7325 39.8385 80.6367 40.0038 80.5232 40.1529C80.3879 40.3262 80.2267 40.4707 80.047 40.5796C79.8706 40.6851 79.6791 40.754 79.4816 40.7831C79.1782 40.8201 78.8714 40.7835 78.5813 40.6757C78.1704 40.5159 77.7826 40.2872 77.4306 39.9974C77.1227 39.75 76.8287 39.481 76.5502 39.1919C75.5064 38.0888 74.5671 36.8639 73.7478 35.5373L74.5687 34.7431C75.0647 35.266 75.5607 35.7945 76.0567 36.2948C76.5498 36.7949 77.0646 37.2666 77.5992 37.708C77.8509 37.9132 78.1125 38.1019 78.3829 38.2733C78.6009 38.424 78.8363 38.5391 79.0823 38.6153C79.1666 38.6351 79.2261 38.6153 79.1988 38.6153C79.1404 38.6227 79.0856 38.6514 79.0426 38.6972C79.0277 38.6972 79.0277 38.6972 79.0426 38.6972L79.122 38.4627L79.2956 37.9482C79.7258 36.532 80.0615 35.0807 80.3 33.6068C80.4314 32.8663 80.5232 32.1117 80.6224 31.3627C80.7216 30.6137 80.791 29.842 80.848 29.127L83.0056 29.2909Z" fill="#FFC3BD"/>
<path d="M81.5027 26.1792C80.5777 26.4477 79.9304 30.7834 79.9304 30.7834L82.4774 32.7619C82.4774 32.7619 84.9202 28.3894 84.2134 27.2306C83.4694 26.0181 82.8519 25.7891 81.5027 26.1792Z" fill="#407BFF"/>
<path d="M81.5027 26.1792C80.5777 26.4477 79.9304 30.7834 79.9304 30.7834L82.4774 32.7619C82.4774 32.7619 84.9202 28.3894 84.2134 27.2306C83.4694 26.0181 82.8519 25.7891 81.5027 26.1792Z" fill="#407BFF"/>
<path opacity="0.4" d="M81.5027 26.1792C80.5777 26.4477 79.9304 30.7834 79.9304 30.7834L82.4774 32.7619C82.4774 32.7619 84.9202 28.3894 84.2134 27.2306C83.4694 26.0181 82.8519 25.7891 81.5027 26.1792Z" fill="black"/>
<path opacity="0.3" d="M81.5846 27.1484L80.8753 31.5153L82.3063 32.6232L81.5846 27.1484Z" fill="black"/>
<path d="M74.6108 34.5648L73.408 32.3828L72.7211 34.8616C72.7211 34.8616 73.7131 36.0487 74.6133 35.766L74.6108 34.5648Z" fill="#FFC3BD"/>
<path d="M71.6225 31.6621L71.1463 33.7706L72.7112 34.8616L73.3981 32.3828L71.6225 31.6621Z" fill="#FFC3BD"/>
<path d="M86.5025 99.1373H84.2605L84.1093 93.2188H86.3537L86.5025 99.1373Z" fill="#FFC3BD"/>
<path d="M106.29 87.2668L104.582 88.9231L100.671 84.9435L102.379 83.29L106.29 87.2668Z" fill="#FFC3BD"/>
<path d="M104.113 88.7246L105.772 86.5595C105.8 86.5222 105.84 86.4979 105.883 86.4912C105.925 86.4844 105.969 86.4956 106.005 86.5228L107.694 87.7692C107.736 87.8022 107.771 87.8449 107.797 87.8944C107.823 87.9439 107.84 87.9992 107.846 88.0566C107.852 88.114 107.847 88.1722 107.832 88.2274C107.817 88.2826 107.792 88.3335 107.759 88.3769C107.168 89.1203 106.851 89.4453 106.122 90.395C105.675 90.98 105.073 91.8902 104.453 92.6957C103.833 93.5012 103.099 92.8511 103.295 92.4498C104.165 90.6578 103.957 90.0304 103.972 89.1485C103.974 88.9927 104.024 88.8427 104.113 88.7246Z" fill="#263238"/>
<path d="M84.1837 98.8438H86.7033C86.7467 98.8433 86.7887 98.8608 86.8216 98.893C86.8544 98.9253 86.8759 98.9701 86.8819 99.019L87.1696 101.28C87.1777 101.34 87.1741 101.401 87.159 101.459C87.144 101.517 87.1178 101.57 87.0825 101.615C87.0472 101.661 87.0036 101.696 86.9547 101.72C86.9059 101.744 86.8531 101.755 86.8001 101.752C85.9221 101.735 85.4981 101.676 84.3895 101.676C83.7075 101.676 82.2989 101.758 81.3565 101.758C80.4141 101.758 80.3645 100.695 80.7588 100.602C82.5146 100.169 83.2065 99.5758 83.7993 99.0077C83.9058 98.902 84.0424 98.8437 84.1837 98.8438Z" fill="#263238"/>
<path opacity="0.2" d="M84.1117 93.2217L84.1886 96.2714H86.4305L86.3536 93.2217H84.1117Z" fill="black"/>
<path opacity="0.2" d="M102.382 83.29L100.671 84.9435L102.689 86.9955L104.398 85.3392L102.382 83.29Z" fill="black"/>
<path d="M81.5028 26.1791C81.5028 26.1791 80.4339 26.6087 82.5741 41.6057H91.6807C91.5294 37.3802 91.5244 34.7742 93.2952 26.1056C92.0203 25.806 90.7282 25.6114 89.4288 25.5233C88.0517 25.4115 86.6693 25.4115 85.2922 25.5233C83.5165 25.7212 81.5028 26.1791 81.5028 26.1791Z" fill="#407BFF"/>
<path opacity="0.4" d="M81.5028 26.1791C81.5028 26.1791 80.4339 26.6087 82.5741 41.6057H91.6807C91.5294 37.3802 91.5244 34.7742 93.2952 26.1056C92.0203 25.806 90.7282 25.6114 89.4288 25.5233C88.0517 25.4115 86.6693 25.4115 85.2922 25.5233C83.5165 25.7212 81.5028 26.1791 81.5028 26.1791Z" fill="black"/>
<path d="M89.4288 25.5233C88.0517 25.4115 86.6693 25.4115 85.2922 25.5233C85.069 25.5459 84.8408 25.5742 84.6152 25.6053C84.5218 25.7659 84.462 25.9489 84.4405 26.14C84.419 26.3311 84.4364 26.5253 84.4912 26.7076C84.7813 27.5301 85.8279 27.6262 86.5917 27.6262C89.4115 27.6262 89.8876 25.7494 89.9075 25.6703L89.9348 25.5572C89.776 25.5459 89.5975 25.5318 89.4288 25.5233Z" fill="white"/>
<path d="M89.032 20.2178C88.7692 21.7327 88.5112 24.5111 89.4412 25.523C89.4412 25.523 89.0767 27.0634 86.6041 27.0634C83.8761 27.0634 85.3046 25.5258 85.3046 25.5258C86.7926 25.1216 86.7504 23.8667 86.4925 22.6994L89.032 20.2178Z" fill="#FFC3BD"/>
<path opacity="0.2" d="M87.983 21.2236L86.4801 22.6849C86.5448 22.9627 86.588 23.2464 86.6091 23.5328C87.1745 23.4396 87.9532 22.7301 88.0152 22.0546C88.05 21.7777 88.0391 21.4959 87.983 21.2236Z" fill="black"/>
<path d="M87.4721 11.9701C87.2415 11.0798 87.0481 9.67787 88.4369 9.04474C87.8937 8.28726 87.7623 6.86274 88.4369 6.01764C89.1114 5.17254 90.1232 5.48344 90.1232 5.48344C90.1232 5.48344 90.4208 3.41732 92.6256 3.78758C94.8303 4.15785 93.8482 5.81131 93.8482 5.81131C93.8482 5.81131 96.8564 5.13296 97.0573 8.3551C97.2582 11.5772 95.5321 11.1815 95.5321 11.1815C95.5321 11.1815 96.8738 12.4647 96.1298 13.8751C95.3858 15.2855 93.6672 14.7994 93.6672 14.7994C93.6672 14.7994 92.8587 17.2923 90.9541 15.8734C89.0494 14.4545 87.4721 11.9701 87.4721 11.9701Z" fill="#263238"/>
<path d="M83.0056 13.8503C82.2616 14.947 82.589 16.1878 83.2536 16.6767C84.8532 17.8412 87.1671 12.9572 86.5644 12.3721C85.9618 11.787 83.7496 12.7508 83.0056 13.8503Z" fill="#263238"/>
<path d="M89.724 11.2381C88.6724 10.7548 87.606 11.2607 87.2737 11.9899C86.4628 13.7677 90.1456 16.9701 91.212 14.7485C91.8444 13.4286 90.8077 11.7355 89.724 11.2381Z" fill="#407BFF"/>
<path d="M89.28 16.6764C89.3569 19.2202 89.4362 20.283 88.4269 21.699C86.9116 23.8273 84.1613 23.3807 83.4222 20.9217C82.7576 18.7086 82.7452 14.9354 84.8259 13.6974C85.2833 13.4216 85.795 13.2837 86.3123 13.2967C86.8296 13.3098 87.3354 13.4733 87.7817 13.7718C88.2279 14.0702 88.5998 14.4938 88.8621 15.0022C89.1243 15.5105 89.2682 16.0869 89.28 16.6764Z" fill="#FFC3BD"/>
<path d="M88.9452 18.0079C87.9532 17.5868 87.7052 16.2669 87.864 15.7468C87.368 15.7242 86.2842 15.5207 85.88 14.8197C85.1062 15.385 83.4719 15.9503 83.2958 15.0091C83.1197 14.0679 85.5848 11.6485 87.4498 11.4619C89.6669 11.2415 91.8543 13.7231 91.2913 16.1001C90.7284 18.4771 88.9452 18.0079 88.9452 18.0079Z" fill="#263238"/>
<path d="M82.584 41.6055C82.584 41.6055 80.8158 61.2916 80.9621 69.0868C81.1159 77.1931 83.7223 95.6807 83.7223 95.6807H86.7529C86.7529 95.6807 86.2743 77.6651 86.5421 69.7058C86.8347 61.0259 89.2527 41.6055 89.2527 41.6055H82.584Z" fill="#263238"/>
<path d="M87.0058 95.8054H83.4495L83.1866 94.5138L87.172 94.3555L87.0058 95.8054Z" fill="#407BFF"/>
<path opacity="0.2" d="M86.5024 46.5038C84.2704 51.6309 86.0536 60.9864 86.8447 64.4686C87.2489 59.2397 87.9334 52.8491 88.4666 48.1572C88.1293 45.5061 87.544 44.1381 86.5024 46.5038Z" fill="black"/>
<path d="M84.9797 41.6053C84.9797 41.6053 87.0431 62.0714 88.6005 68.6429C90.4506 76.4438 101.94 86.944 101.94 86.944L104.272 84.6829C104.272 84.6829 95.9438 73.2754 94.5277 69.1658C91.5096 60.4038 94.0937 47.3231 91.6807 41.5996L84.9797 41.6053Z" fill="#263238"/>
<path d="M104.644 84.5667L101.752 87.3649L100.671 86.6272L103.942 83.1592L104.644 84.5667Z" fill="#407BFF"/>
<path d="M85.9792 17.7389C85.9965 17.9452 85.9147 18.1205 85.7981 18.1346C85.6816 18.1487 85.57 17.9904 85.5501 17.7869C85.5303 17.5834 85.6146 17.4026 85.7337 17.3912C85.8527 17.3799 85.9618 17.5241 85.9792 17.7389Z" fill="#263238"/>
<path d="M83.9455 17.9625C83.9629 18.166 83.8811 18.3441 83.762 18.3582C83.643 18.3723 83.5363 18.2141 83.514 18.0077C83.4917 17.8014 83.5785 17.6262 83.6951 17.6148C83.8116 17.6035 83.9282 17.7562 83.9455 17.9625Z" fill="#263238"/>
<path d="M83.7521 17.6205L83.3082 17.5244C83.3082 17.5244 83.576 17.8862 83.7521 17.6205Z" fill="#263238"/>
<path d="M84.511 18.2559C84.3903 18.7411 84.2117 19.2052 83.9803 19.6352C84.0787 19.6997 84.1881 19.7391 84.3011 19.7508C84.4141 19.7625 84.528 19.7462 84.635 19.703L84.511 18.2559Z" fill="#ED847E"/>
<path d="M85.6344 20.3792C85.5362 20.4098 85.4358 20.4306 85.3344 20.4413C85.3275 20.4421 85.3206 20.4413 85.314 20.4391C85.3074 20.4368 85.3013 20.433 85.296 20.428C85.2907 20.423 85.2863 20.4169 85.2831 20.41C85.2799 20.403 85.2779 20.3954 85.2773 20.3876C85.2759 20.3716 85.28 20.3555 85.2888 20.3428C85.2976 20.3302 85.3104 20.3219 85.3244 20.3198C85.5489 20.301 85.7664 20.2224 85.9593 20.0903C86.1523 19.9583 86.3154 19.7765 86.4355 19.5595C86.4383 19.552 86.4425 19.5453 86.4479 19.5399C86.4532 19.5344 86.4595 19.5303 86.4663 19.5279C86.4731 19.5255 86.4803 19.5248 86.4874 19.5259C86.4945 19.5269 86.5013 19.5297 86.5074 19.5341C86.5196 19.5418 86.5288 19.5547 86.533 19.5699C86.5371 19.5852 86.5359 19.6017 86.5297 19.616C86.3297 19.9934 86.0085 20.2671 85.6344 20.3792Z" fill="#263238"/>
<path d="M89.8008 18.4319C89.7465 18.9183 89.5254 19.3604 89.1858 19.6614C88.7319 20.0571 88.2955 19.6614 88.2434 19.0424C88.1987 18.4772 88.3773 17.6292 88.9179 17.4653C89.0359 17.4379 89.158 17.4436 89.2736 17.4818C89.3892 17.52 89.495 17.5896 89.5819 17.6847C89.6687 17.7798 89.734 17.8974 89.7721 18.0276C89.8102 18.1577 89.8201 18.2965 89.8008 18.4319Z" fill="#FFC3BD"/>
<path d="M86.1974 16.2864C86.1836 16.2904 86.1693 16.2912 86.1552 16.2888C86.1411 16.2864 86.1277 16.2808 86.1155 16.2723C86.0031 16.1905 85.8753 16.1402 85.7425 16.1255C85.6098 16.1107 85.4759 16.132 85.3517 16.1875C85.3259 16.2006 85.2967 16.202 85.27 16.1915C85.2433 16.181 85.2211 16.1594 85.2078 16.131C85.1959 16.1021 85.1944 16.069 85.2036 16.0388C85.2129 16.0087 85.2323 15.9839 85.2575 15.9699C85.4136 15.8964 85.583 15.8667 85.7513 15.8834C85.9197 15.9002 86.082 15.9628 86.2246 16.066C86.2364 16.0741 86.2467 16.0848 86.2548 16.0974C86.2629 16.1101 86.2688 16.1244 86.272 16.1397C86.2752 16.1549 86.2758 16.1708 86.2736 16.1862C86.2714 16.2017 86.2666 16.2166 86.2594 16.2299C86.2457 16.257 86.2235 16.2771 86.1974 16.2864Z" fill="#263238"/>
<path d="M82.9486 16.9905C82.923 17.0015 82.8948 17.0015 82.8692 16.9905C82.8451 16.9744 82.8274 16.9485 82.8195 16.9181C82.8117 16.8876 82.8144 16.8548 82.8271 16.8265C82.9027 16.6545 83.0137 16.5058 83.1506 16.3931C83.2874 16.2805 83.4461 16.2071 83.6132 16.1793C83.6271 16.1777 83.6411 16.1794 83.6544 16.1841C83.6677 16.1889 83.6801 16.1966 83.6907 16.2069C83.7014 16.2172 83.7101 16.2298 83.7164 16.244C83.7227 16.2582 83.7264 16.2736 83.7273 16.2895C83.7294 16.3213 83.7204 16.3528 83.7023 16.3771C83.6842 16.4014 83.6584 16.4166 83.6306 16.4195C83.499 16.4447 83.3745 16.505 83.2672 16.5954C83.1599 16.6857 83.0728 16.8037 83.0131 16.9396C83.006 16.9527 82.9966 16.964 82.9855 16.9728C82.9744 16.9816 82.9618 16.9876 82.9486 16.9905Z" fill="#263238"/>
<path d="M94.2252 28.8613C94.7308 30.2712 95.1672 31.7121 95.5321 33.1773C95.919 34.6553 96.1944 36.1682 96.3555 37.6996C96.3976 38.0896 96.41 38.4995 96.4249 38.9036V39.1326C96.4249 39.2145 96.4125 39.2993 96.4026 39.3728C96.382 39.5141 96.3538 39.6538 96.3183 39.7911C96.2537 40.0262 96.1707 40.2542 96.0703 40.4723C95.7264 41.1969 95.3049 41.8701 94.8154 42.4762C93.9102 43.6096 92.9138 44.6439 91.8394 45.5655L91.1227 44.6582C91.9485 43.5588 92.7818 42.431 93.4886 41.2665C93.8301 40.7381 94.1211 40.1696 94.3566 39.5707C94.397 39.4548 94.4301 39.3358 94.4558 39.2145C94.4625 39.1735 94.4667 39.1319 94.4682 39.0902C94.4695 39.078 94.4695 39.0656 94.4682 39.0534V39.0139C94.436 38.6803 94.4136 38.3468 94.3591 38.0048C94.1457 36.6086 93.8482 35.2307 93.4688 33.8811C93.0893 32.5131 92.6652 31.1253 92.2288 29.8025L94.2252 28.8613Z" fill="#FFC3BD"/>
<path d="M93.2951 26.1053C94.2078 26.4219 95.3039 30.0029 95.3039 30.0029L91.76 32.8859C91.76 32.8859 90.4679 29.8984 90.8523 28.553C91.264 27.1539 92.256 25.7435 93.2951 26.1053Z" fill="#407BFF"/>
<path opacity="0.4" d="M93.2951 26.1053C94.2078 26.4219 95.3039 30.0029 95.3039 30.0029L91.76 32.8859C91.76 32.8859 90.4679 29.8984 90.8523 28.553C91.264 27.1539 92.256 25.7435 93.2951 26.1053Z" fill="black"/>
<path d="M103.5 89.9573C103.454 89.9559 103.409 89.9427 103.369 89.9187C103.328 89.8947 103.292 89.8606 103.265 89.8188C103.242 89.7923 103.226 89.7596 103.218 89.7239C103.211 89.6881 103.211 89.6507 103.22 89.6153C103.304 89.3044 104.083 89.05 104.172 89.0217C104.182 89.0177 104.193 89.0175 104.203 89.0211C104.213 89.0247 104.221 89.0318 104.227 89.0415C104.233 89.0512 104.235 89.0625 104.235 89.074C104.235 89.0855 104.233 89.0969 104.227 89.1065C104.088 89.4089 103.813 89.9177 103.53 89.9544L103.5 89.9573ZM104.076 89.18C103.768 89.2931 103.366 89.4881 103.332 89.652C103.328 89.6675 103.328 89.6839 103.332 89.6994C103.336 89.7148 103.344 89.7288 103.354 89.7396C103.374 89.772 103.401 89.7979 103.432 89.8148C103.463 89.8317 103.498 89.8389 103.533 89.8357C103.676 89.8159 103.877 89.5729 104.076 89.18Z" fill="#407BFF"/>
<path d="M103.83 89.1915C103.598 89.2185 103.366 89.1437 103.18 88.9824C103.154 88.9449 103.14 88.8986 103.14 88.8509C103.14 88.8032 103.154 88.7569 103.18 88.7195C103.202 88.6803 103.232 88.6473 103.267 88.6228C103.302 88.5983 103.341 88.5831 103.381 88.5782C103.704 88.533 104.192 89.0135 104.212 89.0332C104.219 89.0399 104.225 89.0487 104.228 89.0587C104.231 89.0687 104.232 89.0795 104.229 89.0898C104.228 89.1008 104.225 89.1112 104.218 89.1197C104.212 89.1283 104.204 89.1346 104.195 89.1378C104.076 89.1763 103.953 89.1944 103.83 89.1915ZM103.436 88.6969H103.401C103.376 88.7002 103.351 88.7097 103.329 88.7248C103.308 88.74 103.289 88.7603 103.275 88.7845C103.237 88.8495 103.25 88.8834 103.275 88.9061C103.371 89.0502 103.813 89.1039 104.081 89.0474C103.897 88.8665 103.675 88.7454 103.436 88.6969Z" fill="#407BFF"/>
<path d="M83.3405 99.2902C83.1488 99.31 82.9571 99.2542 82.7973 99.1319C82.7632 99.0965 82.7367 99.0525 82.72 99.0035C82.7032 98.9545 82.6966 98.9017 82.7006 98.8493C82.7026 98.8158 82.7121 98.7834 82.7282 98.7552C82.7442 98.727 82.7663 98.7039 82.7924 98.6882C83.0677 98.5158 83.9605 99.0358 84.0621 99.098C84.0716 99.1041 84.0793 99.1133 84.0841 99.1243C84.089 99.1354 84.0908 99.1479 84.0894 99.1602C84.088 99.1727 84.0832 99.1843 84.0756 99.1935C84.068 99.2026 84.0581 99.2088 84.0473 99.2111C83.8143 99.262 83.5777 99.2885 83.3405 99.2902ZM82.9412 98.7617C82.9069 98.7592 82.8727 98.767 82.842 98.7843C82.8314 98.7902 82.8224 98.7995 82.8163 98.811C82.8101 98.8225 82.807 98.8358 82.8073 98.8493C82.8032 98.8846 82.8067 98.9206 82.8175 98.9541C82.8283 98.9876 82.846 99.0175 82.8693 99.0415C83.0057 99.1828 83.3653 99.2054 83.8613 99.1121C83.5744 98.9363 83.2632 98.8178 82.9412 98.7617Z" fill="#407BFF"/>
<path d="M84.0373 99.2084H84.015C83.7471 99.0699 83.2189 98.5188 83.271 98.2305C83.271 98.1627 83.3231 98.075 83.4694 98.0581C83.5222 98.0518 83.5756 98.0578 83.6264 98.0758C83.6771 98.0938 83.7241 98.1233 83.7645 98.1627C84.0447 98.4312 84.0968 99.118 84.0993 99.1491C84.1 99.1595 84.0984 99.1699 84.0945 99.1793C84.0905 99.1888 84.0845 99.1969 84.077 99.2028C84.0711 99.207 84.0646 99.2097 84.0577 99.2106C84.0508 99.2116 84.0439 99.2109 84.0373 99.2084ZM83.5016 98.1711H83.4719C83.3727 98.1711 83.3677 98.2277 83.3652 98.2418C83.3404 98.4142 83.7 98.8495 83.9728 99.036C83.9506 98.7456 83.8501 98.4702 83.6851 98.2474C83.6349 98.1949 83.5698 98.1648 83.5016 98.1627V98.1711Z" fill="#407BFF"/>
<path d="M91.8171 40.9832L92.0502 41.9131C92.0824 41.9838 92.008 42.0573 91.9014 42.0573H82.5295C82.4476 42.0573 82.3782 42.0121 82.3732 41.9527L82.2914 41.0256C82.2914 40.9606 82.3559 40.9069 82.4476 40.9069H91.6707C91.6988 40.9042 91.7271 40.9098 91.7527 40.9232C91.7783 40.9365 91.8005 40.9572 91.8171 40.9832Z" fill="#407BFF"/>
<path opacity="0.3" d="M91.8171 40.9832L92.0502 41.9131C92.0824 41.9838 92.008 42.0573 91.9014 42.0573H82.5295C82.4476 42.0573 82.3782 42.0121 82.3732 41.9527L82.2914 41.0256C82.2914 40.9606 82.3559 40.9069 82.4476 40.9069H91.6707C91.6988 40.9042 91.7271 40.9098 91.7527 40.9232C91.7783 40.9365 91.8005 40.9572 91.8171 40.9832Z" fill="white"/>
<path d="M90.5795 42.1709H90.8275C90.8746 42.1709 90.9118 42.1426 90.9094 42.1059L90.7928 40.899C90.7928 40.8651 90.7482 40.834 90.6986 40.834H90.4506C90.401 40.834 90.3638 40.8651 90.3687 40.899L90.4828 42.1059C90.4878 42.1426 90.52 42.1709 90.5795 42.1709Z" fill="#263238"/>
<path d="M83.2239 42.1709H83.4719C83.5215 42.1709 83.5587 42.1426 83.5562 42.1059L83.4396 40.899C83.4396 40.8651 83.3925 40.834 83.3454 40.834H83.0974C83.0478 40.834 83.0106 40.8651 83.0131 40.899L83.1296 42.1059C83.1321 42.1426 83.1743 42.1709 83.2239 42.1709Z" fill="#263238"/>
<path d="M86.9017 42.1709H87.1497C87.1993 42.1709 87.2365 42.1426 87.234 42.1059L87.1175 40.899C87.1175 40.8651 87.0728 40.834 87.0232 40.834H86.7752C86.7256 40.834 86.6884 40.8651 86.6934 40.899L86.8 42.1144C86.8 42.1426 86.8521 42.1709 86.9017 42.1709Z" fill="#263238"/>
<path d="M85.7882 17.3969L85.3443 17.3008C85.3443 17.3008 85.5973 17.6626 85.7882 17.3969Z" fill="#263238"/>
<path opacity="0.2" d="M77.5794 53.389C73.3777 55.2493 68.7864 55.6479 64.386 54.5344C59.9856 53.4209 55.9737 50.8453 52.8576 47.1332C49.7416 43.4212 47.6613 38.7394 46.8799 33.6799C46.0985 28.6204 46.6511 23.4105 48.4677 18.7089C50.2843 14.0073 53.2833 10.0252 57.0857 7.2662C60.888 4.50715 65.3228 3.09506 69.8293 3.20848C74.3358 3.32191 78.7115 4.95575 82.4033 7.90342C86.095 10.8511 88.9369 14.9802 90.5696 19.7686C91.6541 22.9482 92.1784 26.3401 92.1125 29.7507C92.0465 33.1612 91.3917 36.5236 90.1854 39.6456C88.9791 42.7677 87.2449 45.5884 85.082 47.9465C82.919 50.3046 80.3696 52.154 77.5794 53.389Z" fill="#407BFF"/>
<path opacity="0.1" d="M73.4551 3.63269L55.5793 49.9014C55.304 49.6639 55.0312 49.418 54.7634 49.1693C53.0356 47.5404 51.531 45.6265 50.2994 43.491L65.7399 3.52528C68.2979 3.05572 70.9079 3.09205 73.4551 3.63269Z" fill="white"/>
<path opacity="0.1" d="M86.1627 11.6598L69.3557 55.1614C65.8647 55.1657 62.4196 54.2547 59.2869 52.4989L77.6389 4.99512C80.8901 6.44425 83.8062 8.72433 86.1627 11.6598Z" fill="white"/>
<path d="M50.5623 11.6792C53.5992 7.45 57.6683 4.34215 62.255 2.74863C66.8417 1.1551 71.74 1.14747 76.3305 2.72669C80.921 4.30592 84.9976 7.40107 88.0446 11.6208C91.0917 15.8404 92.9724 20.9951 93.4489 26.433C93.9255 31.8709 92.9765 37.3476 90.7219 42.1708C88.4673 46.994 85.0084 50.9469 80.7826 53.5296C76.5569 56.1124 71.754 57.209 66.9813 56.6809C62.2087 56.1527 57.6806 54.0234 53.9698 50.5624C48.9942 45.9207 45.8401 39.2168 45.201 31.925C44.562 24.6332 46.4905 17.3507 50.5623 11.6792ZM86.552 45.2459C89.3397 41.3623 91.0543 36.6238 91.4791 31.6297C91.9039 26.6356 91.0198 21.61 88.9385 17.1885C86.8573 12.767 83.6724 9.14819 79.7866 6.78956C75.9008 4.43093 71.4885 3.43847 67.1078 3.93765C62.7271 4.43684 58.5746 6.40526 55.1755 9.59402C51.7763 12.7828 49.2832 17.0486 48.0112 21.8522C46.7393 26.6558 46.7457 31.7814 48.0297 36.5808C49.3137 41.3802 51.8175 45.638 55.2247 48.8156C57.4872 50.9258 60.0923 52.5074 62.8913 53.47C65.6902 54.4326 68.628 54.7575 71.5371 54.426C74.4462 54.0945 77.2695 53.1132 79.8458 51.538C82.4221 49.9629 84.7008 47.8248 86.552 45.2459Z" fill="#407BFF"/>
<path d="M88.6923 45.1496C91.0805 46.7748 93.3522 48.5611 95.5842 50.404C97.8162 52.2468 99.9911 54.166 102.131 56.136C104.272 58.106 106.372 60.1326 108.398 62.2609C109.413 63.3236 110.405 64.4146 111.374 65.5339C112.346 66.6644 113.301 67.795 114.202 69.0217C114.41 69.3057 114.524 69.6634 114.526 70.0333C114.527 70.4033 114.416 70.7623 114.21 71.0487C114.005 71.335 113.718 71.5309 113.4 71.6025C113.081 71.6741 112.751 71.617 112.466 71.4411C111.226 70.678 110.065 69.8357 108.907 68.9736C107.749 68.1116 106.618 67.2128 105.502 66.2885C103.27 64.4457 101.11 62.5039 98.9942 60.5C96.8787 58.496 94.7955 56.4469 92.7694 54.3158C90.7432 52.1846 88.7567 50.0026 86.8868 47.6567C86.6533 47.3665 86.5194 46.9902 86.5097 46.5966C86.5 46.2031 86.6151 45.8187 86.8339 45.514C87.0527 45.2094 87.3605 45.0048 87.701 44.9379C88.0414 44.871 88.3916 44.9461 88.6873 45.1496H88.6923Z" fill="#407BFF"/>
<path d="M91.3608 44.375L88.9651 44.7905L90.6788 46.5033C90.6788 46.5033 92.0328 45.938 92.1668 44.8922L91.3608 44.375Z" fill="#FFC3BD"/>
<path d="M87.6705 46.3599L89.1759 47.7053L91.0136 46.3373L88.9651 44.7969L87.6705 46.3599Z" fill="#FFC3BD"/>
<path d="M76.3443 49.3358C76.5631 48.655 76.9577 48.0657 77.4761 47.6454C77.9944 47.2252 78.6123 46.9936 79.2484 46.9814H99.1008C99.4438 46.9667 99.7855 47.0381 100.102 47.1904C100.418 47.3427 100.701 47.5722 100.931 47.8628C101.161 48.1533 101.332 48.4979 101.432 48.872C101.532 49.2462 101.56 49.6409 101.511 50.0283L96.3827 99.0696C96.2739 99.9045 95.908 100.668 95.3505 101.224C94.793 101.779 94.0803 102.091 93.3398 102.102H30.3478C30.0059 102.117 29.6653 102.047 29.35 101.895C29.0347 101.744 28.7523 101.516 28.5227 101.226C28.2932 100.937 28.122 100.594 28.0213 100.222C27.9205 99.8491 27.8927 99.4559 27.9397 99.0696L32.24 57.8659C32.3488 57.0311 32.7147 56.2675 33.2722 55.7119C33.8297 55.1563 34.5424 54.8448 35.283 54.8332H69.5615C71.0469 54.8043 72.4898 54.2637 73.7005 53.2825C74.9111 52.3013 75.8328 50.9254 76.3443 49.3358Z" fill="#407BFF"/>
<path d="M29.0731 99.8435H94.8948L98.6445 49.3691H32.8253L29.0731 99.8435Z" fill="#F0F0F0"/>
<path d="M29.0731 99.8435H94.8947L97.6079 49.3691H32.8253L29.0731 99.8435Z" fill="#E0E0E0"/>
<path d="M29.0731 99.8436H94.8947L97.1565 47.7666H31.3373L29.0731 99.8436Z" fill="#F0F0F0"/>
<path d="M29.0731 99.8436H94.8947L95.79 47.7666H31.3373L29.0731 99.8436Z" fill="#E0E0E0"/>
<path d="M29.0731 99.8437H94.8947L95.2866 46.3535H29.4674L29.0731 99.8437Z" fill="#F0F0F0"/>
<path d="M29.0731 99.8436H94.8947L93.5431 47.3652H28.148L29.0731 99.8436Z" fill="#E0E0E0"/>
<path d="M29.073 99.8436H94.8947L92.9405 47.7666H27.1213L29.073 99.8436Z" fill="#F0F0F0"/>
<path d="M29.0731 99.844H94.8947L91.7823 48.5527H25.9631L29.0731 99.844Z" fill="#E0E0E0"/>
<path d="M29.0731 99.8434H94.8948L91.2864 48.9902H25.4672L29.0731 99.8434Z" fill="#F0F0F0"/>
<path d="M62.0347 52.521C62.0384 52.1931 62.1 51.8693 62.2157 51.569C62.3314 51.2688 62.499 50.9981 62.7084 50.7732C62.9178 50.5482 63.1648 50.3736 63.4346 50.2597C63.7045 50.1457 63.9917 50.0949 64.2791 50.11H84.1315C84.9002 50.1437 85.6372 50.4672 86.227 51.03C86.8168 51.5927 87.226 52.3627 87.3903 53.2191L95.2345 99.0073C95.5271 100.723 94.5451 102.116 93.0397 102.116H30.0477C28.5399 102.116 27.0717 100.723 26.7865 99.0073L20.3162 61.2603C20.0235 59.5447 21.0056 58.1512 22.511 58.1512H56.792C59.768 58.1512 61.9331 55.8166 62.0347 52.521Z" fill="#407BFF"/>
<path opacity="0.2" d="M62.0347 52.521C62.0384 52.1931 62.1 51.8693 62.2157 51.569C62.3314 51.2688 62.499 50.9981 62.7084 50.7732C62.9178 50.5482 63.1648 50.3736 63.4346 50.2597C63.7045 50.1457 63.9917 50.0949 64.2791 50.11H84.1315C84.9002 50.1437 85.6372 50.4672 86.227 51.03C86.8168 51.5927 87.226 52.3627 87.3903 53.2191L95.2345 99.0073C95.5271 100.723 94.5451 102.116 93.0397 102.116H30.0477C28.5399 102.116 27.0717 100.723 26.7865 99.0073L20.3162 61.2603C20.0235 59.5447 21.0056 58.1512 22.511 58.1512H56.792C59.768 58.1512 61.9331 55.8166 62.0347 52.521Z" fill="black"/>
</svg>
