<svg width="6" height="19" viewBox="0 0 6 19" fill="none" xmlns="http://www.w3.org/2000/svg">
<path d="M3.08814 4.21077C2.55779 4.2014 2.05288 3.98174 1.68449 3.60011C1.31609 3.21847 1.1144 2.70612 1.12376 2.17577C1.13312 1.64542 1.35279 1.14051 1.73442 0.77212C2.11606 0.403728 2.62841 0.202028 3.15876 0.211393C3.68911 0.220758 4.19402 0.440421 4.56241 0.822057C4.9308 1.20369 5.1325 1.71604 5.12314 2.24639C5.11377 2.77674 4.89411 3.28165 4.51247 3.65004C4.13084 4.01844 3.61849 4.22013 3.08814 4.21077ZM2.96455 11.2097C2.4342 11.2003 1.92929 10.9807 1.5609 10.599C1.19251 10.2174 0.990808 9.70503 1.00017 9.17468C1.00954 8.64433 1.2292 8.13942 1.61084 7.77103C1.99247 7.40264 2.50482 7.20094 3.03517 7.2103C3.56552 7.21967 4.07043 7.43933 4.43882 7.82097C4.80721 8.2026 5.00891 8.71495 4.99955 9.2453C4.99018 9.77565 4.77052 10.2806 4.38889 10.649C4.00725 11.0173 3.4949 11.219 2.96455 11.2097ZM2.84096 18.2086C2.31061 18.1992 1.8057 17.9796 1.43731 17.5979C1.06892 17.2163 0.86722 16.7039 0.876585 16.1736C0.88595 15.6432 1.10561 15.1383 1.48725 14.7699C1.86889 14.4015 2.38123 14.1998 2.91158 14.2092C3.44193 14.2186 3.94684 14.4382 4.31523 14.8199C4.68363 15.2015 4.88533 15.7139 4.87596 16.2442C4.8666 16.7746 4.64693 17.2795 4.2653 17.6479C3.88366 18.0163 3.37131 18.218 2.84096 18.2086Z" fill="black"/>
</svg>
