<svg width="22" height="22" viewBox="0 0 22 22" fill="none" xmlns="http://www.w3.org/2000/svg">
<path d="M18.887 11.4942L20.243 12.7017C20.4934 12.9107 20.6607 13.2024 20.7147 13.524C20.7686 13.8457 20.7056 14.176 20.537 14.4552L18.902 17.2482C18.7752 17.462 18.594 17.6385 18.377 17.7597C18.1575 17.8812 17.9109 17.9457 17.66 17.9472C17.5044 17.9482 17.3495 17.9249 17.201 17.8782L15.4655 17.3052C15.1615 17.5002 14.8455 17.6747 14.5175 17.8287L14.153 19.5882C14.0856 19.9119 13.9054 20.2011 13.6445 20.4042C13.3804 20.611 13.0529 20.7201 12.7175 20.7132H9.33202C8.99664 20.7201 8.66916 20.611 8.40502 20.4042C8.14474 20.2008 7.96508 19.9117 7.89802 19.5882L7.53202 17.8287C7.20832 17.6726 6.89426 17.4973 6.59152 17.3037L4.85002 17.8782C4.70153 17.9249 4.54667 17.9482 4.39102 17.9472C4.14061 17.9454 3.89463 17.8809 3.67552 17.7597C3.45868 17.6389 3.27757 17.463 3.15052 17.2497L1.45702 14.4552C1.28096 14.1735 1.21369 13.8372 1.26781 13.5094C1.32194 13.1817 1.49374 12.8849 1.75102 12.6747L3.10552 10.9632V10.4322L1.74952 9.2247C1.49911 9.01574 1.3318 8.72403 1.27787 8.40238C1.22394 8.08074 1.28696 7.75041 1.45552 7.4712L3.14902 4.6782C3.27587 4.4644 3.45699 4.28794 3.67402 4.1667C3.89313 4.04546 4.13911 3.981 4.38952 3.9792C4.54377 3.96947 4.6986 3.98364 4.84852 4.0212L6.55552 4.6212C6.86052 4.4262 7.17652 4.2517 7.50352 4.0977L7.86952 2.3382C7.93658 2.01475 8.11624 1.7256 8.37652 1.5222C8.64066 1.31542 8.96814 1.20626 9.30352 1.2132H12.6605C12.9959 1.20626 13.3234 1.31542 13.5875 1.5222C13.85 1.7277 14.03 2.0172 14.0945 2.3382L14.4605 4.0977C14.7855 4.2527 15.099 4.4277 15.401 4.6227L17.144 4.0497C17.3375 3.98677 17.5419 3.96468 17.7443 3.98482C17.9467 4.00496 18.1428 4.06689 18.32 4.1667C18.5375 4.2897 18.7175 4.4667 18.845 4.6767L20.537 7.4712C20.7154 7.75054 20.7861 8.08525 20.7359 8.41288C20.6857 8.7405 20.5179 9.03866 20.264 9.2517L18.887 10.4247V11.4942Z" stroke="#7A859B" stroke-width="1.5"/>
<path d="M14.75 10.9629C14.75 11.9575 14.3549 12.9113 13.6517 13.6145C12.9484 14.3178 11.9946 14.7129 11 14.7129C10.0054 14.7129 9.05161 14.3178 8.34835 13.6145C7.64509 12.9113 7.25 11.9575 7.25 10.9629C7.25 9.96833 7.64509 9.0145 8.34835 8.31124C9.05161 7.60798 10.0054 7.21289 11 7.21289C11.9946 7.21289 12.9484 7.60798 13.6517 8.31124C14.3549 9.0145 14.75 9.96833 14.75 10.9629Z" stroke="#7A859B" stroke-width="1.5"/>
</svg>
