<svg width="24" height="24" viewBox="0 0 24 24" fill="none" xmlns="http://www.w3.org/2000/svg">
<circle cx="12" cy="12" r="12" fill="#0F2045"/>
<g clip-path="url(#clip0_402_211)">
<path fill-rule="evenodd" clip-rule="evenodd" d="M11.8047 8.19519C11.9297 8.32021 11.9999 8.48975 11.9999 8.66652C11.9999 8.8433 11.9297 9.01284 11.8047 9.13786L8.94269 11.9999L11.8047 14.8619C11.9261 14.9876 11.9933 15.156 11.9918 15.3308C11.9903 15.5056 11.9202 15.6728 11.7966 15.7964C11.673 15.92 11.5058 15.9901 11.331 15.9916C11.1562 15.9932 10.9878 15.926 10.862 15.8045L7.52869 12.4712C7.40371 12.3462 7.3335 12.1766 7.3335 11.9999C7.3335 11.8231 7.40371 11.6535 7.52869 11.5285L10.862 8.19519C10.987 8.07021 11.1566 8 11.3334 8C11.5101 8 11.6797 8.07021 11.8047 8.19519ZM15.8047 8.19519C15.9297 8.32021 15.9999 8.48975 15.9999 8.66652C15.9999 8.8433 15.9297 9.01284 15.8047 9.13786L12.9427 11.9999L15.8047 14.8619C15.9261 14.9876 15.9933 15.156 15.9918 15.3308C15.9903 15.5056 15.9202 15.6728 15.7966 15.7964C15.673 15.92 15.5058 15.9901 15.331 15.9916C15.1562 15.9932 14.9878 15.926 14.862 15.8045L11.5287 12.4712C11.4037 12.3462 11.3335 12.1766 11.3335 11.9999C11.3335 11.8231 11.4037 11.6535 11.5287 11.5285L14.862 8.19519C14.987 8.07021 15.1566 8 15.3334 8C15.5101 8 15.6797 8.07021 15.8047 8.19519Z" fill="#F6F6F6"/>
</g>
<defs>
<clipPath id="clip0_402_211">
<rect width="16" height="16" fill="white" transform="translate(4 4)"/>
</clipPath>
</defs>
</svg>
