<svg width="60" height="60" viewBox="0 0 60 60" fill="none" xmlns="http://www.w3.org/2000/svg">
<circle cx="30" cy="30" r="30" fill="#EBF1FE"/>
<path d="M32.536 16.3232V18.8682C35.936 18.8872 39.656 18.8332 43.057 18.8872C43.177 18.8664 43.3001 18.8738 43.4167 18.9089C43.5333 18.9439 43.6401 19.0057 43.7287 19.0893C43.8172 19.1729 43.885 19.276 43.9267 19.3904C43.9685 19.5047 43.9829 19.6273 43.969 19.7482C44.023 26.0142 43.956 32.6382 44.001 38.9052C43.981 39.3052 44.01 40.0232 43.948 40.4222C43.869 40.9312 43.642 41.0292 43.131 41.0982C42.845 41.1372 42.367 41.1322 42.086 41.1452C39.294 41.1312 36.504 41.1342 33.712 41.1352H32.537V43.6822L16 41.1332V18.8732L32.536 16.3232Z" fill="#283C82"/>
<path d="M32.5361 19.8223H43.0361V40.1803H32.5361V37.6353H40.8061V36.3633H32.5361V34.7733H40.8061V33.5003H32.5361V31.9103H40.8061V30.6373H32.5361V29.0473H40.8061V27.7743H32.5361V26.1843H40.8061V24.9113H32.5361V23.3213H40.8061V22.0483H32.5361V19.8223ZM22.5731 25.4433C23.1731 25.4083 23.7821 25.3833 24.3861 25.3513C24.8091 27.4983 25.2421 29.6423 25.7001 31.7803C26.0591 29.5723 26.4571 27.3713 26.8421 25.1673C27.4776 25.1446 28.1127 25.1112 28.7471 25.0673C28.0281 28.1493 27.3981 31.2573 26.6131 34.3213C26.0821 34.5983 25.2871 34.3083 24.6571 34.3533C24.2341 32.2473 23.7411 30.1533 23.3621 28.0393C22.9901 30.1003 22.5061 32.1333 22.0801 34.1753C21.4694 34.1433 20.8564 34.1063 20.2411 34.0643C19.7131 31.2643 19.0931 28.4853 18.6001 25.6793C19.1454 25.6539 19.6904 25.6316 20.2351 25.6123C20.5631 27.6383 20.9351 29.6553 21.2211 31.6843C21.6691 29.6043 22.1281 27.5233 22.5731 25.4433Z" fill="white"/>
</svg>
