<svg width="60" height="61" viewBox="0 0 60 61" fill="none" xmlns="http://www.w3.org/2000/svg">
<circle cx="30" cy="30.21" r="30" fill="#EBF1FE"/>
<path d="M25.0459 38.848C25.3259 38.6827 25.6319 38.524 25.9639 38.372C25.6831 38.79 25.3828 39.1944 25.0639 39.584C24.5039 40.258 24.0679 40.616 23.7939 40.728L23.7239 40.752C23.7041 40.7242 23.6867 40.6948 23.6719 40.664C23.5599 40.444 23.5639 40.232 23.7519 39.944C23.9639 39.614 24.3899 39.236 25.0459 38.848ZM29.9559 35.554C29.7186 35.6034 29.4812 35.6554 29.2439 35.71C29.5966 35.0194 29.93 34.3191 30.2439 33.61C30.56 34.1959 30.9002 34.7684 31.2639 35.326C30.8292 35.39 30.3932 35.466 29.9559 35.554ZM35.0059 37.432C34.6959 37.1808 34.405 36.9067 34.1359 36.612C34.5946 36.6214 35.0026 36.6574 35.3599 36.72C35.9939 36.834 36.2919 37.014 36.3959 37.138C36.4279 37.1732 36.4463 37.2185 36.4479 37.266C36.4406 37.4071 36.3994 37.5443 36.3279 37.666C36.2881 37.7638 36.2233 37.8493 36.1399 37.914C36.0991 37.9405 36.05 37.9511 36.0019 37.944C35.8219 37.938 35.4859 37.812 35.0059 37.432ZM30.5559 27.94C30.4759 28.428 30.3399 28.988 30.1559 29.598C30.0883 29.3696 30.029 29.1387 29.9779 28.906C29.8259 28.2 29.8039 27.646 29.8859 27.262C29.9619 26.908 30.1059 26.766 30.2779 26.696C30.37 26.6549 30.4678 26.6279 30.5679 26.616C30.5939 26.676 30.6239 26.8 30.6319 27.012C30.6426 27.256 30.6172 27.566 30.5559 27.942V27.94Z" fill="#FF5959"/>
<path fill-rule="evenodd" clip-rule="evenodd" d="M22 14H32.586C33.1164 14.0001 33.625 14.2109 34 14.586L41.414 22C41.7891 22.375 41.9999 22.8836 42 23.414V42C42 43.0609 41.5786 44.0783 40.8284 44.8284C40.0783 45.5786 39.0609 46 38 46H22C20.9391 46 19.9217 45.5786 19.1716 44.8284C18.4214 44.0783 18 43.0609 18 42V18C18 16.9391 18.4214 15.9217 19.1716 15.1716C19.9217 14.4214 20.9391 14 22 14ZM33 17V21C33 21.5304 33.2107 22.0391 33.5858 22.4142C33.9609 22.7893 34.4696 23 35 23H39L33 17ZM22.33 41.336C22.51 41.696 22.79 42.022 23.206 42.174C23.62 42.324 24.03 42.254 24.366 42.114C25.002 41.854 25.636 41.242 26.218 40.542C26.884 39.74 27.584 38.688 28.26 37.522C29.5652 37.1357 30.9016 36.864 32.254 36.71C32.854 37.476 33.474 38.136 34.074 38.61C34.634 39.05 35.28 39.416 35.942 39.444C36.3025 39.4613 36.6594 39.3647 36.962 39.168C37.272 38.966 37.502 38.674 37.67 38.336C37.85 37.974 37.96 37.596 37.946 37.21C37.934 36.8293 37.7929 36.464 37.546 36.174C37.094 35.634 36.354 35.374 35.626 35.244C34.7428 35.1079 33.8469 35.0744 32.956 35.144C32.2041 34.0802 31.5482 32.9518 30.996 31.772C31.496 30.452 31.87 29.204 32.036 28.184C32.108 27.748 32.146 27.332 32.132 26.956C32.1294 26.5828 32.0426 26.215 31.878 25.88C31.7831 25.6952 31.6483 25.5337 31.4833 25.4075C31.3183 25.2812 31.1272 25.1933 30.924 25.15C30.52 25.064 30.104 25.15 29.722 25.304C28.968 25.604 28.57 26.244 28.42 26.95C28.274 27.63 28.34 28.422 28.512 29.222C28.688 30.034 28.988 30.918 29.372 31.812C28.7563 33.339 28.047 34.8265 27.248 36.266C26.2175 36.5908 25.224 37.0232 24.284 37.556C23.544 37.996 22.886 38.516 22.49 39.13C22.07 39.782 21.94 40.558 22.33 41.336Z" fill="#FF5959"/>
</svg>
