<svg width="60" height="60" viewBox="0 0 60 60" fill="none" xmlns="http://www.w3.org/2000/svg">
<circle cx="30" cy="30" r="30" fill="#EBF1FE"/>
<path d="M30 30C28.9 30 27.9583 29.6083 27.175 28.825C26.3917 28.0417 26 27.1 26 26C26 24.9 26.3917 23.9583 27.175 23.175C27.9583 22.3917 28.9 22 30 22C31.1 22 32.0417 22.3917 32.825 23.175C33.6083 23.9583 34 24.9 34 26C34 27.1 33.6083 28.0417 32.825 28.825C32.0417 29.6083 31.1 30 30 30ZM22 36V35.2C22 34.6333 22.146 34.1127 22.438 33.638C22.73 33.1633 23.1173 32.8007 23.6 32.55C24.6333 32.0333 25.6833 31.646 26.75 31.388C27.8167 31.13 28.9 31.0007 30 31C31.1 30.9993 32.1833 31.1287 33.25 31.388C34.3167 31.6473 35.3667 32.0347 36.4 32.55C36.8833 32.8 37.271 33.1627 37.563 33.638C37.855 34.1133 38.0007 34.634 38 35.2V36C38 36.55 37.8043 37.021 37.413 37.413C37.0217 37.805 36.5507 38.0007 36 38H24C23.45 38 22.9793 37.8043 22.588 37.413C22.1967 37.0217 22.0007 36.5507 22 36ZM24 36H36V35.2C36 35.0167 35.9543 34.85 35.863 34.7C35.7717 34.55 35.6507 34.4333 35.5 34.35C34.6 33.9 33.6917 33.5627 32.775 33.338C31.8583 33.1133 30.9333 33.0007 30 33C29.0667 32.9993 28.1417 33.112 27.225 33.338C26.3083 33.564 25.4 33.9013 24.5 34.35C24.35 34.4333 24.229 34.55 24.137 34.7C24.045 34.85 23.9993 35.0167 24 35.2V36ZM30 28C30.55 28 31.021 27.8043 31.413 27.413C31.805 27.0217 32.0007 26.5507 32 26C31.9993 25.4493 31.8037 24.9787 31.413 24.588C31.0223 24.1973 30.5513 24.0013 30 24C29.4487 23.9987 28.978 24.1947 28.588 24.588C28.198 24.9813 28.002 25.452 28 26C27.998 26.548 28.194 27.019 28.588 27.413C28.982 27.807 29.4527 28.0027 30 28Z" fill="#3570EF"/>
</svg>
