<svg width="69" height="69" viewBox="0 0 69 69" fill="none" xmlns="http://www.w3.org/2000/svg">
<circle opacity="0.1" cx="34.5" cy="34.5" r="34.5" fill="#FFD400"/>
<path d="M20 31.6667C20 25.3817 20 22.2384 21.9533 20.2867C23.9067 18.335 27.0483 18.3334 33.3333 18.3334H36.6667C42.9517 18.3334 46.095 18.3334 48.0467 20.2867C49.9983 22.24 50 25.3817 50 31.6667V38.3334C50 44.6184 50 47.7617 48.0467 49.7134C46.0933 51.665 42.9517 51.6667 36.6667 51.6667H33.3333C27.0483 51.6667 23.905 51.6667 21.9533 49.7134C20.0017 47.76 20 44.6184 20 38.3334V31.6667Z" stroke="#FFD400" stroke-width="2"/>
<path d="M28.3333 31.6667H41.6666M28.3333 38.3334H36.6666" stroke="#FFD400" stroke-width="2" stroke-linecap="round"/>
</svg>
