<svg width="24" height="25" viewBox="0 0 24 25" fill="none" xmlns="http://www.w3.org/2000/svg">
<path d="M19.887 13.4942L21.243 14.7017C21.4934 14.9107 21.6607 15.2024 21.7147 15.524C21.7686 15.8457 21.7056 16.176 21.537 16.4552L19.902 19.2482C19.7752 19.462 19.594 19.6385 19.377 19.7597C19.1575 19.8812 18.9109 19.9457 18.66 19.9472C18.5044 19.9482 18.3495 19.9249 18.201 19.8782L16.4655 19.3052C16.1615 19.5002 15.8455 19.6747 15.5175 19.8287L15.153 21.5882C15.0856 21.9119 14.9054 22.2011 14.6445 22.4042C14.3804 22.611 14.0529 22.7201 13.7175 22.7132H10.332C9.99664 22.7201 9.66916 22.611 9.40502 22.4042C9.14474 22.2008 8.96508 21.9117 8.89802 21.5882L8.53202 19.8287C8.20832 19.6726 7.89426 19.4973 7.59152 19.3037L5.85002 19.8782C5.70153 19.9249 5.54667 19.9482 5.39102 19.9472C5.14061 19.9454 4.89463 19.8809 4.67552 19.7597C4.45868 19.6389 4.27757 19.463 4.15052 19.2497L2.45702 16.4552C2.28096 16.1735 2.21369 15.8372 2.26781 15.5094C2.32194 15.1817 2.49374 14.8849 2.75102 14.6747L4.10552 12.9632V12.4322L2.74952 11.2247C2.49911 11.0157 2.3318 10.724 2.27787 10.4024C2.22394 10.0807 2.28696 9.75041 2.45552 9.4712L4.14902 6.6782C4.27587 6.4644 4.45699 6.28794 4.67402 6.1667C4.89313 6.04546 5.13911 5.981 5.38952 5.9792C5.54377 5.96947 5.6986 5.98364 5.84852 6.0212L7.55552 6.6212C7.86052 6.4262 8.17652 6.2517 8.50352 6.0977L8.86952 4.3382C8.93658 4.01475 9.11624 3.7256 9.37652 3.5222C9.64066 3.31542 9.96814 3.20626 10.3035 3.2132H13.6605C13.9959 3.20626 14.3234 3.31542 14.5875 3.5222C14.85 3.7277 15.03 4.0172 15.0945 4.3382L15.4605 6.0977C15.7855 6.2527 16.099 6.4277 16.401 6.6227L18.144 6.0497C18.3375 5.98677 18.5419 5.96468 18.7443 5.98482C18.9467 6.00496 19.1428 6.06689 19.32 6.1667C19.5375 6.2897 19.7175 6.4667 19.845 6.6767L21.537 9.4712C21.7154 9.75054 21.7861 10.0852 21.7359 10.4129C21.6857 10.7405 21.5179 11.0387 21.264 11.2517L19.887 12.4247V13.4942Z" stroke="#F6F6F6" stroke-width="1.5"/>
<path d="M15.75 12.9629C15.75 13.9575 15.3549 14.9113 14.6517 15.6145C13.9484 16.3178 12.9946 16.7129 12 16.7129C11.0054 16.7129 10.0516 16.3178 9.34835 15.6145C8.64509 14.9113 8.25 13.9575 8.25 12.9629C8.25 11.9683 8.64509 11.0145 9.34835 10.3112C10.0516 9.60798 11.0054 9.21289 12 9.21289C12.9946 9.21289 13.9484 9.60798 14.6517 10.3112C15.3549 11.0145 15.75 11.9683 15.75 12.9629Z" stroke="#F6F6F6" stroke-width="1.5"/>
</svg>
