<svg width="37" height="37" viewBox="0 0 37 37" fill="none" xmlns="http://www.w3.org/2000/svg">
<circle opacity="0.1" cx="18.5" cy="18.5" r="18.5" fill="#0F2045"/>
<path d="M13.6267 26.4733C13.3391 26.4653 13.056 26.3994 12.7943 26.2798C12.5326 26.1602 12.2976 25.9892 12.1033 25.777C11.909 25.5648 11.7593 25.3157 11.6631 25.0445C11.5669 24.7733 11.5262 24.4856 11.5434 24.1983C11.5334 22.4042 11.5434 20.61 11.5434 18.8158C11.5434 18.7053 11.5873 18.5993 11.6654 18.5212C11.7436 18.4431 11.8495 18.3992 11.9601 18.3992C12.0706 18.3992 12.1765 18.4431 12.2547 18.5212C12.3328 18.5993 12.3767 18.7053 12.3767 18.8158C12.3767 20.6492 12.3501 22.4825 12.3767 24.3158C12.3901 25.2383 13.0834 25.64 13.9084 25.64H24.2942C24.5564 25.646 24.8142 25.572 25.0333 25.4279C25.2524 25.2838 25.4225 25.0764 25.5209 24.8333C25.6012 24.5459 25.6294 24.2465 25.6042 23.9492V18.8158C25.6042 18.7053 25.6481 18.5993 25.7263 18.5212C25.8044 18.4431 25.9104 18.3992 26.0209 18.3992C26.1314 18.3992 26.2374 18.4431 26.3155 18.5212C26.3937 18.5993 26.4376 18.7053 26.4376 18.8158C26.4376 20.6692 26.5084 22.5367 26.4376 24.3883C26.4304 24.6719 26.3669 24.9512 26.2508 25.21C26.1346 25.4688 25.9682 25.7019 25.7612 25.8958C25.5541 26.0896 25.3106 26.2404 25.0447 26.3393C24.7788 26.4381 24.496 26.4831 24.2126 26.4717L13.6267 26.4733Z" fill="#0F2045"/>
<path d="M19.2808 11.6466C19.2123 11.5766 19.1196 11.5354 19.0217 11.5316C19.01 11.5327 18.9981 11.5311 18.9858 11.5266C18.9675 11.5199 18.9633 11.5266 18.9517 11.5316C18.8535 11.5352 18.7604 11.5764 18.6917 11.6466L15.6342 14.7041C15.5583 14.7827 15.5163 14.8879 15.5172 14.9972C15.5182 15.1064 15.562 15.2109 15.6393 15.2882C15.7165 15.3655 15.821 15.4093 15.9303 15.4102C16.0395 15.4112 16.1448 15.3692 16.2233 15.2933L18.57 12.9474V21.8991C18.57 22.0096 18.6139 22.1156 18.692 22.1937C18.7702 22.2719 18.8762 22.3158 18.9867 22.3158C19.0972 22.3158 19.2032 22.2719 19.2813 22.1937C19.3594 22.1156 19.4033 22.0096 19.4033 21.8991V12.9474L21.75 15.2933C21.8286 15.3692 21.9338 15.4112 22.0431 15.4102C22.1523 15.4093 22.2568 15.3655 22.3341 15.2882C22.4114 15.2109 22.4552 15.1064 22.4561 14.9972C22.4571 14.8879 22.4151 14.7827 22.3392 14.7041L19.2808 11.6466Z" fill="#0F2045"/>
</svg>
