<svg width="25" height="25" viewBox="0 0 25 25" fill="none" xmlns="http://www.w3.org/2000/svg">
<circle opacity="0.1" cx="12.5" cy="12.5" r="12.5" fill="#3570EF"/>
<path d="M12.5 13.375L9.4375 16.4375C9.32292 16.5521 9.17708 16.6094 9 16.6094C8.82292 16.6094 8.67708 16.5521 8.5625 16.4375C8.44792 16.3229 8.39062 16.1771 8.39062 16C8.39062 15.8229 8.44792 15.6771 8.5625 15.5625L11.625 12.5L8.5625 9.4375C8.44792 9.32292 8.39062 9.17708 8.39062 9C8.39062 8.82292 8.44792 8.67708 8.5625 8.5625C8.67708 8.44792 8.82292 8.39062 9 8.39062C9.17708 8.39062 9.32292 8.44792 9.4375 8.5625L12.5 11.625L15.5625 8.5625C15.6771 8.44792 15.8229 8.39062 16 8.39062C16.1771 8.39062 16.3229 8.44792 16.4375 8.5625C16.5521 8.67708 16.6094 8.82292 16.6094 9C16.6094 9.17708 16.5521 9.32292 16.4375 9.4375L13.375 12.5L16.4375 15.5625C16.5521 15.6771 16.6094 15.8229 16.6094 16C16.6094 16.1771 16.5521 16.3229 16.4375 16.4375C16.3229 16.5521 16.1771 16.6094 16 16.6094C15.8229 16.6094 15.6771 16.5521 15.5625 16.4375L12.5 13.375Z" fill="black"/>
</svg>
