<svg width="60" height="60" viewBox="0 0 60 60" fill="none" xmlns="http://www.w3.org/2000/svg">
<circle opacity="0.1" cx="30" cy="30" r="30" fill="#39A680"/>
<path d="M23.07 22.5L23.4075 23.1675L23.82 24H27V27.75H21V22.5H23.07ZM23.535 21H20.25C20.0511 21 19.8603 21.079 19.7197 21.2197C19.579 21.3603 19.5 21.5511 19.5 21.75V28.5C19.5 28.6989 19.579 28.8897 19.7197 29.0303C19.8603 29.171 20.0511 29.25 20.25 29.25H27.75C27.9489 29.25 28.1397 29.171 28.2803 29.0303C28.421 28.8897 28.5 28.6989 28.5 28.5V23.25C28.5 23.0511 28.421 22.8603 28.2803 22.7197C28.1397 22.579 27.9489 22.5 27.75 22.5H24.75L24.21 21.4125C24.1471 21.2877 24.0506 21.1829 23.9313 21.11C23.812 21.0372 23.6748 20.999 23.535 21ZM35.07 22.5L35.4075 23.1675L35.82 24H39V27.75H33V22.5H35.07ZM35.535 21H32.25C32.0511 21 31.8603 21.079 31.7197 21.2197C31.579 21.3603 31.5 21.5511 31.5 21.75V28.5C31.5 28.6989 31.579 28.8897 31.7197 29.0303C31.8603 29.171 32.0511 29.25 32.25 29.25H39.75C39.9489 29.25 40.1397 29.171 40.2803 29.0303C40.421 28.8897 40.5 28.6989 40.5 28.5V23.25C40.5 23.0511 40.421 22.8603 40.2803 22.7197C40.1397 22.579 39.9489 22.5 39.75 22.5H36.75L36.21 21.4125C36.1471 21.2877 36.0506 21.1829 35.9313 21.11C35.812 21.0372 35.6748 20.999 35.535 21ZM23.07 32.25L23.4075 32.9175L23.82 33.75H27V37.5H21V32.25H23.07ZM23.535 30.75H20.25C20.0511 30.75 19.8603 30.829 19.7197 30.9697C19.579 31.1103 19.5 31.3011 19.5 31.5V38.25C19.5 38.4489 19.579 38.6397 19.7197 38.7803C19.8603 38.921 20.0511 39 20.25 39H27.75C27.9489 39 28.1397 38.921 28.2803 38.7803C28.421 38.6397 28.5 38.4489 28.5 38.25V33C28.5 32.8011 28.421 32.6103 28.2803 32.4697C28.1397 32.329 27.9489 32.25 27.75 32.25H24.75L24.21 31.1625C24.1471 31.0377 24.0506 30.9329 23.9313 30.86C23.812 30.7872 23.6748 30.749 23.535 30.75ZM35.07 32.25L35.4075 32.9175L35.82 33.75H39V37.5H33V32.25H35.07ZM35.535 30.75H32.25C32.0511 30.75 31.8603 30.829 31.7197 30.9697C31.579 31.1103 31.5 31.3011 31.5 31.5V38.25C31.5 38.4489 31.579 38.6397 31.7197 38.7803C31.8603 38.921 32.0511 39 32.25 39H39.75C39.9489 39 40.1397 38.921 40.2803 38.7803C40.421 38.6397 40.5 38.4489 40.5 38.25V33C40.5 32.8011 40.421 32.6103 40.2803 32.4697C40.1397 32.329 39.9489 32.25 39.75 32.25H36.75L36.21 31.1625C36.1471 31.0377 36.0506 30.9329 35.9313 30.86C35.812 30.7872 35.6748 30.749 35.535 30.75Z" fill="#39A680"/>
</svg>
