<svg width="53" height="53" viewBox="0 0 53 53" fill="none" xmlns="http://www.w3.org/2000/svg">
<circle opacity="0.1" cx="26.5" cy="26.5" r="26.5" fill="#3570EF"/>
<g clip-path="url(#clip0_51_2576)">
<path d="M19.0001 23.0733H24.0734V18H31.0001V23.5866H32.3334V18C32.3334 17.6463 32.1929 17.3072 31.9429 17.0572C31.6928 16.8071 31.3537 16.6666 31.0001 16.6666H22.2467L17.6667 21.2466V34C17.6667 34.3536 17.8072 34.6927 18.0573 34.9428C18.3073 35.1928 18.6465 35.3333 19.0001 35.3333H31.0001C31.3537 35.3333 31.6928 35.1928 31.9429 34.9428C32.1929 34.6927 32.3334 34.3536 32.3334 34H19.0001V23.0733ZM19.0001 21.7933L22.7934 18H23.0001V22H19.0001V21.7933Z" fill="#3570EF"/>
<path d="M33.8799 24.9001C33.7524 24.7908 33.5883 24.7338 33.4205 24.7402C33.2528 24.7467 33.0936 24.8163 32.9749 24.935C32.8561 25.0537 32.7866 25.2129 32.7801 25.3807C32.7736 25.5485 32.8307 25.7125 32.9399 25.8401L35.1066 28.0001H26.9999C26.8231 28.0001 26.6535 28.0703 26.5285 28.1953C26.4035 28.3203 26.3333 28.4899 26.3333 28.6667C26.3333 28.8435 26.4035 29.0131 26.5285 29.1381C26.6535 29.2631 26.8231 29.3334 26.9999 29.3334H35.1266L32.9399 31.5201C32.8701 31.5798 32.8134 31.6534 32.7734 31.7361C32.7334 31.8188 32.7109 31.9089 32.7074 32.0007C32.7038 32.0925 32.7193 32.1841 32.7528 32.2696C32.7863 32.3552 32.8372 32.4328 32.9022 32.4978C32.9671 32.5628 33.0448 32.6136 33.1304 32.6471C33.2159 32.6807 33.3075 32.6961 33.3993 32.6926C33.4911 32.689 33.5812 32.6666 33.6639 32.6265C33.7466 32.5865 33.8202 32.5298 33.8799 32.4601L37.6666 28.6667L33.8799 24.9001Z" fill="#3570EF"/>
</g>
<defs>
<clipPath id="clip0_51_2576">
<rect width="24" height="24" fill="white" transform="translate(15 14)"/>
</clipPath>
</defs>
</svg>
