<svg width="128" height="128" viewBox="0 0 128 128" fill="none" xmlns="http://www.w3.org/2000/svg">
<circle cx="64" cy="64" r="64" fill="#EBF1FE"/>
<path fill-rule="evenodd" clip-rule="evenodd" d="M55.4667 36.1843V49.7779H41.8731C42.1432 49.2528 42.4935 48.773 42.9113 48.3557L54.0444 37.2225C54.4616 36.8037 54.9414 36.4553 55.4667 36.1843ZM61.1556 35.5557V49.7779C61.1556 51.2867 60.5562 52.7337 59.4893 53.8005C58.4224 54.8674 56.9755 55.4668 55.4667 55.4668H41.2444V86.7557C41.2444 88.2645 41.8438 89.7114 42.9107 90.7783C43.9776 91.8452 45.4245 92.4446 46.9333 92.4446H81.0667C82.5755 92.4446 84.0224 91.8452 85.0893 90.7783C86.1562 89.7114 86.7556 88.2645 86.7556 86.7557V41.2446C86.7556 39.7358 86.1562 38.2888 85.0893 37.2219C84.0224 36.155 82.5755 35.5557 81.0667 35.5557H61.1556ZM62.2763 62.7286C62.0326 62.2416 61.6542 61.8348 61.1861 61.5565C60.718 61.2782 60.1798 61.1401 59.6355 61.1587C59.0912 61.1773 58.5637 61.3517 58.1157 61.6613C57.6676 61.9708 57.3178 62.4025 57.1079 62.905L49.9968 79.9717C49.8165 80.404 49.7457 80.8741 49.7907 81.3403C49.8358 81.8065 49.9952 82.2544 50.255 82.6442C50.5148 83.034 50.8667 83.3536 51.2797 83.5746C51.6927 83.7956 52.1538 83.9113 52.6222 83.9112H75.3778C75.8624 83.911 76.339 83.7869 76.7623 83.5507C77.1855 83.3145 77.5414 82.9742 77.7961 82.5618C78.0509 82.1495 78.196 81.6789 78.2178 81.1948C78.2396 80.7106 78.1374 80.2289 77.9207 79.7953L72.2318 68.4175C72.015 67.9841 71.691 67.6132 71.2905 67.3402C70.8901 67.0671 70.4265 66.9009 69.9438 66.8573C69.4611 66.8137 68.9753 66.8942 68.5324 67.0911C68.0896 67.288 67.7043 67.5947 67.4133 67.9823L65.9058 69.9905L62.2763 62.7286ZM66.8444 56.889C66.8444 55.7574 67.294 54.6722 68.0941 53.872C68.8943 53.0719 69.9795 52.6223 71.1111 52.6223C72.2427 52.6223 73.3279 53.0719 74.1281 53.872C74.9283 54.6722 75.3778 55.7574 75.3778 56.889C75.3778 58.0206 74.9283 59.1058 74.1281 59.906C73.3279 60.7061 72.2427 61.1557 71.1111 61.1557C69.9795 61.1557 68.8943 60.7061 68.0941 59.906C67.294 59.1058 66.8444 58.0206 66.8444 56.889Z" fill="#FFD400"/>
</svg>
